<svg width="80" height="105" viewBox="0 0 80 105" fill="none" xmlns="http://www.w3.org/2000/svg">
<path d="M0 5C0 2.23858 2.23858 0 5 0H75C77.7614 0 80 2.23858 80 5V80H0V5Z" fill="#1D1D1F"/>
<path d="M0 80H80V100C80 102.761 77.7614 105 75 105H5C2.23858 105 0 102.761 0 100V80Z" fill="#303133"/>
<path d="M25.2256 96.2414V86.4386H28.3359C29.2839 86.4386 30.0335 86.646 30.585 87.0607C31.141 87.4754 31.4189 88.0155 31.4189 88.6808C31.4189 89.2368 31.2617 89.7199 30.9473 90.1301C30.6328 90.5402 30.1976 90.8319 29.6416 91.0051V91.0324C30.3161 91.1099 30.8538 91.3605 31.2549 91.7843C31.6605 92.2036 31.8633 92.7505 31.8633 93.425C31.8633 94.2635 31.5329 94.9426 30.8721 95.4621C30.2113 95.9816 29.3773 96.2414 28.3701 96.2414H25.2256ZM26.8457 87.7443V90.5334H27.8984C28.4635 90.5334 28.9056 90.4012 29.2246 90.1369C29.5482 89.868 29.71 89.4898 29.71 89.0021C29.71 88.1636 29.1494 87.7443 28.0283 87.7443H26.8457ZM26.8457 91.839V94.9426H28.2334C28.8395 94.9426 29.3066 94.8036 29.6348 94.5256C29.9674 94.243 30.1338 93.8556 30.1338 93.3634C30.1338 92.3472 29.4297 91.839 28.0215 91.839H26.8457ZM38.8838 96.2414H37.3457V95.1476H37.3184C36.8353 95.9862 36.1266 96.4054 35.1924 96.4054C34.5042 96.4054 33.9642 96.2186 33.5723 95.8449C33.1849 95.4712 32.9912 94.9767 32.9912 94.3615C32.9912 93.0399 33.7523 92.2697 35.2744 92.0509L37.3525 91.757C37.3525 90.759 36.8786 90.2599 35.9307 90.2599C35.0967 90.2599 34.3447 90.547 33.6748 91.1213V89.7336C34.4131 89.2961 35.2653 89.0773 36.2314 89.0773C37.9997 89.0773 38.8838 89.9478 38.8838 91.6886V96.2414ZM37.3525 92.8029L35.8828 93.008C35.4271 93.0672 35.083 93.1789 34.8506 93.3429C34.6227 93.5024 34.5088 93.785 34.5088 94.1906C34.5088 94.4868 34.6136 94.7306 34.8232 94.922C35.0374 95.1089 35.3223 95.2023 35.6777 95.2023C36.1608 95.2023 36.5596 95.0337 36.874 94.6965C37.193 94.3547 37.3525 93.9263 37.3525 93.4113V92.8029ZM40.3877 96.0226V94.5529C40.9801 95.0041 41.6341 95.2297 42.3496 95.2297C43.3066 95.2297 43.7852 94.9471 43.7852 94.382C43.7852 94.2225 43.7441 94.0881 43.6621 93.9787C43.5801 93.8648 43.4684 93.7645 43.3271 93.6779C43.1904 93.5913 43.0264 93.5138 42.835 93.4455C42.6481 93.3771 42.4385 93.2996 42.2061 93.2131C41.9189 93.0991 41.6592 92.9784 41.4268 92.8508C41.1989 92.7231 41.0075 92.5796 40.8525 92.4201C40.7021 92.256 40.5882 92.0715 40.5107 91.8664C40.4333 91.6613 40.3945 91.422 40.3945 91.1486C40.3945 90.8114 40.4743 90.5151 40.6338 90.2599C40.7933 90.0002 41.0075 89.7837 41.2764 89.6105C41.5452 89.4328 41.8506 89.3006 42.1924 89.214C42.5342 89.1229 42.8874 89.0773 43.252 89.0773C43.8991 89.0773 44.4779 89.1753 44.9883 89.3713V90.759C44.4961 90.4217 43.931 90.2531 43.293 90.2531C43.0924 90.2531 42.9102 90.2736 42.7461 90.3146C42.5866 90.3556 42.4499 90.4126 42.3359 90.4855C42.222 90.5584 42.1331 90.6473 42.0693 90.7521C42.0055 90.8524 41.9736 90.964 41.9736 91.0871C41.9736 91.2375 42.0055 91.3651 42.0693 91.4699C42.1331 91.5747 42.2266 91.6681 42.3496 91.7502C42.4772 91.8276 42.6276 91.9006 42.8008 91.9689C42.9785 92.0327 43.1813 92.1034 43.4092 92.1808C43.71 92.3039 43.9788 92.4292 44.2158 92.5568C44.4574 92.6844 44.6624 92.8302 44.8311 92.9943C44.9997 93.1538 45.1296 93.3407 45.2207 93.5549C45.3118 93.7645 45.3574 94.0151 45.3574 94.3068C45.3574 94.6623 45.2754 94.9722 45.1113 95.2365C44.9473 95.5008 44.7285 95.7196 44.4551 95.8927C44.1816 96.0659 43.8649 96.1935 43.5049 96.2756C43.1494 96.3621 42.7734 96.4054 42.377 96.4054C41.6113 96.4054 40.9482 96.2778 40.3877 96.0226ZM53.0889 96.2414H51.5029V92.4133C51.5029 91.0278 51.0404 90.3351 50.1152 90.3351C49.6504 90.3351 49.2585 90.5356 48.9395 90.9367C48.6204 91.3377 48.4609 91.8504 48.4609 92.4748V96.2414H46.8682V85.8781H48.4609V90.4035H48.4883C49.0169 89.5194 49.7734 89.0773 50.7578 89.0773C52.3118 89.0773 53.0889 90.0275 53.0889 91.9279V96.2414Z" fill="#E8E8E8"/>
<g clip-path="url(#clip0_2_43)">
<path fill-rule="evenodd" clip-rule="evenodd" d="M58.8391 25.2031L43.05 15.8313C42.1327 15.2866 41.0856 14.9992 40.0187 14.9992C38.9519 14.9992 37.9048 15.2866 36.9875 15.8313L21.1953 25.2031C20.2567 25.7632 19.4801 26.5579 18.9418 27.509C18.4034 28.4602 18.1219 29.5352 18.125 30.6281V49.3719C18.1192 50.4623 18.3967 51.5355 18.9302 52.4865C19.4638 53.4374 20.2351 54.2336 21.1687 54.7969L36.9578 64.1688C37.8751 64.7134 38.9222 65.0008 39.9891 65.0008C41.0559 65.0008 42.103 64.7134 43.0203 64.1688L58.8125 54.7969C59.7461 54.2336 60.5175 53.4374 61.051 52.4865C61.5846 51.5355 61.862 50.4623 61.8562 49.3719V30.6281C61.865 29.5404 61.5918 28.469 61.0633 27.5183C60.5348 26.5675 59.769 25.7699 58.8406 25.2031H58.8391ZM46.6094 54.4719V55.8156C46.6078 55.9844 46.5203 56.1391 46.3781 56.2297L45.5781 56.6875C45.4531 56.7531 45.3469 56.6875 45.3469 56.5109V55.1875C44.7821 55.465 44.1357 55.5278 43.5281 55.3641C43.4312 55.2984 43.3937 55.1734 43.4406 55.0516L43.7266 53.8328C43.7516 53.7297 43.8047 53.6375 43.8859 53.5672C43.9087 53.5446 43.9351 53.5262 43.9641 53.5125C44.0043 53.4968 44.0489 53.4968 44.0891 53.5125C44.6467 53.6623 45.2409 53.5871 45.7437 53.3031C46.1009 53.1287 46.4042 52.8608 46.6215 52.528C46.8389 52.1951 46.9621 51.8097 46.9781 51.4125C46.9781 50.7281 46.6031 50.4438 45.6969 50.4359C44.55 50.4359 43.5094 50.2172 43.4625 48.5234C43.4891 47.0594 44.1687 45.6844 45.3156 44.7734V43.4109C45.3141 43.2547 45.4031 43.0984 45.5469 42.9922L46.3187 42.5016C46.4437 42.4359 46.55 42.5016 46.55 42.6828V44.0453C47.0229 43.8304 47.5507 43.767 48.0609 43.8641C48.1703 43.9266 48.2141 44.0641 48.1609 44.1766L47.8906 45.3844C47.8672 45.4781 47.8203 45.5609 47.7531 45.6266C47.7312 45.65 47.7062 45.6703 47.675 45.6891C47.6437 45.7078 47.5969 45.7016 47.5594 45.6891C47.0619 45.5802 46.5417 45.6651 46.1047 45.9266C45.786 46.064 45.5129 46.2894 45.3176 46.5764C45.1223 46.8633 45.0126 47.1999 45.0016 47.5469C45.0016 48.1641 45.3266 48.3516 46.4187 48.375C47.8797 48.375 48.5078 49.0359 48.525 50.5031C48.4969 52.0391 47.7953 53.4844 46.6062 54.4563L46.6094 54.4719ZM54.8797 52.2063C54.8984 52.3219 54.8516 52.4406 54.7578 52.5094L50.7812 54.9344C50.7437 54.9656 50.6875 54.9703 50.6453 54.9453C50.6031 54.9203 50.5828 54.8672 50.5937 54.8203V53.7891C50.5984 53.6766 50.6719 53.5766 50.775 53.5359L54.7062 51.1813C54.7437 51.15 54.8 51.1453 54.8422 51.1703C54.8844 51.1953 54.9047 51.2484 54.8937 51.2953V52.2047L54.8797 52.2063ZM57.6375 29.1563L42.6969 38.3844C40.8328 39.4875 39.4625 40.6938 39.4625 42.9375V61.3406C39.4625 62.6844 40.0141 63.5281 40.8406 63.8094C40.5674 63.8604 40.2904 63.8881 40.0125 63.8922C39.135 63.8902 38.2742 63.6522 37.5203 63.2031L21.7312 53.8328C20.1562 52.8906 19.2219 51.1953 19.2281 49.375V30.6281C19.2187 28.8031 20.1562 27.1094 21.7312 26.1625L37.5203 16.7906C39.0516 15.8844 40.9516 15.8844 42.4828 16.7906L58.2719 26.1625C59.5734 26.95 60.4594 28.2719 60.6969 29.7563C60.1844 28.6422 59.0047 28.35 57.6312 29.1391H57.6359L57.6375 29.1563Z" fill="white"/>
</g>
<defs>
<clipPath id="clip0_2_43">
<rect width="50" height="50" fill="white" transform="translate(15 15)"/>
</clipPath>
</defs>
</svg>
