<svg width="80" height="105" viewBox="0 0 80 105" fill="none" xmlns="http://www.w3.org/2000/svg">
<path d="M0 5C0 2.23858 2.23858 0 5 0H75C77.7614 0 80 2.23858 80 5V80H0V5Z" fill="#1D1D1F"/>
<path d="M0 80H80V100C80 102.761 77.7614 105 75 105H5C2.23858 105 0 102.761 0 100V80Z" fill="#303133"/>
<path d="M9.56543 96.2414V86.4386H12.6758C13.6237 86.4386 14.3734 86.646 14.9248 87.0607C15.4808 87.4754 15.7588 88.0155 15.7588 88.6808C15.7588 89.2368 15.6016 89.7199 15.2871 90.1301C14.9727 90.5402 14.5374 90.8319 13.9814 91.0051V91.0324C14.6559 91.1099 15.1937 91.3605 15.5947 91.7843C16.0003 92.2036 16.2031 92.7505 16.2031 93.425C16.2031 94.2635 15.8727 94.9426 15.2119 95.4621C14.5511 95.9816 13.7171 96.2414 12.71 96.2414H9.56543ZM11.1855 87.7443V90.5334H12.2383C12.8034 90.5334 13.2454 90.4012 13.5645 90.1369C13.888 89.868 14.0498 89.4898 14.0498 89.0021C14.0498 88.1636 13.4893 87.7443 12.3682 87.7443H11.1855ZM11.1855 91.839V94.9426H12.5732C13.1794 94.9426 13.6465 94.8036 13.9746 94.5256C14.3073 94.243 14.4736 93.8556 14.4736 93.3634C14.4736 92.3472 13.7695 91.839 12.3613 91.839H11.1855ZM20.9541 96.4054C19.874 96.4054 19.0104 96.0796 18.3633 95.4279C17.7207 94.7717 17.3994 93.9035 17.3994 92.8234C17.3994 91.6476 17.7344 90.7293 18.4043 90.0685C19.0788 89.4077 19.9857 89.0773 21.125 89.0773C22.2188 89.0773 23.071 89.3986 23.6816 90.0412C24.2923 90.6838 24.5977 91.5747 24.5977 92.714C24.5977 93.8306 24.2673 94.7261 23.6064 95.4006C22.9502 96.0705 22.0661 96.4054 20.9541 96.4054ZM21.0293 90.342C20.4095 90.342 19.9196 90.5584 19.5596 90.9914C19.1995 91.4243 19.0195 92.0213 19.0195 92.7824C19.0195 93.5161 19.2018 94.0949 19.5664 94.5187C19.931 94.938 20.4186 95.1476 21.0293 95.1476C21.6536 95.1476 22.1322 94.9403 22.4648 94.5256C22.8021 94.1108 22.9707 93.5207 22.9707 92.7551C22.9707 91.9849 22.8021 91.3901 22.4648 90.9709C22.1322 90.5516 21.6536 90.342 21.0293 90.342ZM29.3213 96.4054C28.2412 96.4054 27.3776 96.0796 26.7305 95.4279C26.0879 94.7717 25.7666 93.9035 25.7666 92.8234C25.7666 91.6476 26.1016 90.7293 26.7715 90.0685C27.446 89.4077 28.3529 89.0773 29.4922 89.0773C30.5859 89.0773 31.4382 89.3986 32.0488 90.0412C32.6595 90.6838 32.9648 91.5747 32.9648 92.714C32.9648 93.8306 32.6344 94.7261 31.9736 95.4006C31.3174 96.0705 30.4333 96.4054 29.3213 96.4054ZM29.3965 90.342C28.7767 90.342 28.2868 90.5584 27.9268 90.9914C27.5667 91.4243 27.3867 92.0213 27.3867 92.7824C27.3867 93.5161 27.569 94.0949 27.9336 94.5187C28.2982 94.938 28.7858 95.1476 29.3965 95.1476C30.0208 95.1476 30.4993 94.9403 30.832 94.5256C31.1693 94.1108 31.3379 93.5207 31.3379 92.7551C31.3379 91.9849 31.1693 91.3901 30.832 90.9709C30.4993 90.5516 30.0208 90.342 29.3965 90.342ZM38.2764 96.1662C37.9665 96.3211 37.5586 96.3986 37.0527 96.3986C35.6947 96.3986 35.0156 95.7469 35.0156 94.4435V90.4855H33.8467V89.2414H35.0156V87.6213L36.6016 87.1701V89.2414H38.2764V90.4855H36.6016V93.9855C36.6016 94.4002 36.6768 94.6965 36.8271 94.8742C36.9775 95.0519 37.2282 95.1408 37.5791 95.1408C37.848 95.1408 38.0804 95.0633 38.2764 94.9084V96.1662ZM39.2061 96.0226V94.5529C39.7985 95.0041 40.4525 95.2297 41.168 95.2297C42.125 95.2297 42.6035 94.9471 42.6035 94.382C42.6035 94.2225 42.5625 94.0881 42.4805 93.9787C42.3984 93.8648 42.2868 93.7645 42.1455 93.6779C42.0088 93.5913 41.8447 93.5138 41.6533 93.4455C41.4665 93.3771 41.2568 93.2996 41.0244 93.2131C40.7373 93.0991 40.4775 92.9784 40.2451 92.8508C40.0173 92.7231 39.8258 92.5796 39.6709 92.4201C39.5205 92.256 39.4066 92.0715 39.3291 91.8664C39.2516 91.6613 39.2129 91.422 39.2129 91.1486C39.2129 90.8114 39.2926 90.5151 39.4521 90.2599C39.6117 90.0002 39.8258 89.7837 40.0947 89.6105C40.3636 89.4328 40.6689 89.3006 41.0107 89.214C41.3525 89.1229 41.7057 89.0773 42.0703 89.0773C42.7174 89.0773 43.2962 89.1753 43.8066 89.3713V90.759C43.3145 90.4217 42.7493 90.2531 42.1113 90.2531C41.9108 90.2531 41.7285 90.2736 41.5645 90.3146C41.4049 90.3556 41.2682 90.4126 41.1543 90.4855C41.0404 90.5584 40.9515 90.6473 40.8877 90.7521C40.8239 90.8524 40.792 90.964 40.792 91.0871C40.792 91.2375 40.8239 91.3651 40.8877 91.4699C40.9515 91.5747 41.0449 91.6681 41.168 91.7502C41.2956 91.8276 41.446 91.9006 41.6191 91.9689C41.7969 92.0327 41.9997 92.1034 42.2275 92.1808C42.5283 92.3039 42.7972 92.4292 43.0342 92.5568C43.2757 92.6844 43.4808 92.8302 43.6494 92.9943C43.818 93.1538 43.9479 93.3407 44.0391 93.5549C44.1302 93.7645 44.1758 94.0151 44.1758 94.3068C44.1758 94.6623 44.0938 94.9722 43.9297 95.2365C43.7656 95.5008 43.5469 95.7196 43.2734 95.8927C43 96.0659 42.6833 96.1935 42.3232 96.2756C41.9678 96.3621 41.5918 96.4054 41.1953 96.4054C40.4297 96.4054 39.7666 96.2778 39.2061 96.0226ZM49.3779 96.1662C49.068 96.3211 48.6602 96.3986 48.1543 96.3986C46.7962 96.3986 46.1172 95.7469 46.1172 94.4435V90.4855H44.9482V89.2414H46.1172V87.6213L47.7031 87.1701V89.2414H49.3779V90.4855H47.7031V93.9855C47.7031 94.4002 47.7783 94.6965 47.9287 94.8742C48.0791 95.0519 48.3298 95.1408 48.6807 95.1408C48.9495 95.1408 49.182 95.0633 49.3779 94.9084V96.1662ZM54.8057 90.7521C54.6143 90.6017 54.3385 90.5265 53.9785 90.5265C53.5091 90.5265 53.1172 90.7384 52.8027 91.1623C52.4883 91.5861 52.3311 92.1626 52.3311 92.8918V96.2414H50.7451V89.2414H52.3311V90.6838H52.3584C52.5133 90.1916 52.7503 89.8088 53.0693 89.5353C53.3929 89.2573 53.7529 89.1183 54.1494 89.1183C54.4365 89.1183 54.6553 89.1616 54.8057 89.2482V90.7521ZM61.2998 96.2414H59.7617V95.1476H59.7344C59.2513 95.9862 58.5426 96.4054 57.6084 96.4054C56.9202 96.4054 56.3802 96.2186 55.9883 95.8449C55.6009 95.4712 55.4072 94.9767 55.4072 94.3615C55.4072 93.0399 56.1683 92.2697 57.6904 92.0509L59.7686 91.757C59.7686 90.759 59.2946 90.2599 58.3467 90.2599C57.5127 90.2599 56.7607 90.547 56.0908 91.1213V89.7336C56.8291 89.2961 57.6813 89.0773 58.6475 89.0773C60.4157 89.0773 61.2998 89.9478 61.2998 91.6886V96.2414ZM59.7686 92.8029L58.2988 93.008C57.8431 93.0672 57.499 93.1789 57.2666 93.3429C57.0387 93.5024 56.9248 93.785 56.9248 94.1906C56.9248 94.4868 57.0296 94.7306 57.2393 94.922C57.4535 95.1089 57.7383 95.2023 58.0938 95.2023C58.5768 95.2023 58.9756 95.0337 59.29 94.6965C59.609 94.3547 59.7686 93.9263 59.7686 93.4113V92.8029ZM64.8545 95.2092H64.8271V99.4611H63.2412V89.2414H64.8271V90.4718H64.8545C65.3968 89.5422 66.1898 89.0773 67.2334 89.0773C68.1221 89.0773 68.8148 89.3895 69.3115 90.0138C69.8083 90.6382 70.0566 91.4767 70.0566 92.5295C70.0566 93.6961 69.7764 94.6304 69.2158 95.3322C68.6553 96.034 67.8896 96.3849 66.9189 96.3849C66.0257 96.3849 65.3376 95.993 64.8545 95.2092ZM64.8135 92.4474V93.3156C64.8135 93.826 64.9753 94.259 65.2988 94.6144C65.627 94.9699 66.0417 95.1476 66.543 95.1476C67.1309 95.1476 67.5911 94.9198 67.9238 94.464C68.2611 94.0037 68.4297 93.3634 68.4297 92.5431C68.4297 91.855 68.2725 91.3172 67.958 90.9299C67.6481 90.5379 67.2266 90.342 66.6934 90.342C66.1283 90.342 65.6725 90.5425 65.3262 90.9435C64.9844 91.3446 64.8135 91.8459 64.8135 92.4474Z" fill="#E8E8E8"/>
<path d="M45.6326 40.9957C44.5102 40.626 42.8942 40.566 40.7845 40.566H33.2075V51.8868H41.3721C42.7883 51.8868 43.7828 51.7458 44.3557 51.6394C45.3649 51.4594 46.2089 51.113 46.887 50.6908C47.5651 50.2696 48.1226 49.6328 48.5596 48.8268C48.996 48.0208 49.2151 47.0794 49.2151 46.0243C49.2151 44.7881 48.8987 43.7715 48.2658 42.8602C47.6336 41.9483 46.7557 41.3647 45.6326 40.9957ZM44.4689 36.1209C45.584 35.7892 46.4245 35.1892 46.9889 34.4211C47.5543 33.653 47.8368 32.6647 47.8368 31.5038C47.8368 30.404 47.573 29.4236 47.0455 28.5864C46.5179 27.7498 45.7645 27.1821 44.7858 26.873C43.8055 26.5651 42.1255 26.4151 39.7447 26.4151H33.2075V36.6038H40.287C42.2313 36.6038 43.6249 36.3779 44.4689 36.1209ZM70 17.9958C70 13.5796 66.4198 10 62.0036 10H17.9964C13.5802 10 10 13.5796 10 17.9958V62.0041C10 66.4204 13.5802 70 17.9964 70H62.0036C66.4198 70 70 66.4204 70 62.0041V17.9958ZM52.7755 50.3415C52.1206 51.6751 51.31 52.7036 50.346 53.427C49.3815 54.1498 48.1719 54.8115 46.7177 55.1806C45.2636 55.5502 43.4817 55.8491 41.3721 55.8491H28.6792V22.4528H41.1689C43.7008 22.4528 45.7306 22.8038 47.26 23.474C48.79 24.1447 49.9872 25.184 50.8549 26.5775C51.7209 27.9717 52.1545 29.4338 52.1545 30.9558C52.1545 32.3721 51.7696 33.7074 51.0021 34.9583C50.2334 36.2092 49.073 37.2196 47.5209 37.9877C49.5247 38.5753 51.066 39.5789 52.1432 40.9951C53.2204 42.4119 53.7592 44.0845 53.7592 46.0136C53.7587 47.5657 53.4315 49.0085 52.7755 50.3415Z" fill="#5B4282"/>
</svg>
