<svg width="80" height="105" viewBox="0 0 80 105" fill="none" xmlns="http://www.w3.org/2000/svg">
<path d="M0 5C0 2.23858 2.23858 0 5 0H75C77.7614 0 80 2.23858 80 5V80H0V5Z" fill="#1D1D1F"/>
<path d="M0 80H80V100C80 102.761 77.7614 105 75 105H5C2.23858 105 0 102.761 0 100V80Z" fill="#303133"/>
<path d="M33.3408 95.5715C32.32 96.1274 31.1829 96.4054 29.9297 96.4054C28.4805 96.4054 27.307 95.9543 26.4092 95.0519C25.5114 94.1496 25.0625 92.9556 25.0625 91.4699C25.0625 89.9523 25.5524 88.7082 26.5322 87.7375C27.5166 86.7622 28.7653 86.2746 30.2783 86.2746C31.3675 86.2746 32.2835 86.4341 33.0264 86.7531V88.4279C32.2744 87.9266 31.3789 87.6759 30.3398 87.6759C29.2962 87.6759 28.4395 88.02 27.7695 88.7082C27.1042 89.3963 26.7715 90.2873 26.7715 91.381C26.7715 92.5067 27.0586 93.3931 27.6328 94.0402C28.207 94.6828 28.9863 95.0041 29.9707 95.0041C30.6452 95.0041 31.2285 94.8742 31.7207 94.6144V92.2834H29.6562V90.9162H33.3408V95.5715ZM41.3799 96.2414H39.7939V95.134H39.7666C39.3063 95.9816 38.5908 96.4054 37.6201 96.4054C35.9658 96.4054 35.1387 95.412 35.1387 93.425V89.2414H36.7246V93.2609C36.7246 94.5187 37.21 95.1476 38.1807 95.1476C38.6501 95.1476 39.0352 94.9745 39.3359 94.6281C39.6413 94.2817 39.7939 93.8283 39.7939 93.2677V89.2414H41.3799V96.2414ZM45.0439 96.2414H43.4512V85.8781H45.0439V96.2414ZM48.7285 95.2092H48.7012V99.4611H47.1152V89.2414H48.7012V90.4718H48.7285C49.2708 89.5422 50.0638 89.0773 51.1074 89.0773C51.9961 89.0773 52.6888 89.3895 53.1855 90.0138C53.6823 90.6382 53.9307 91.4767 53.9307 92.5295C53.9307 93.6961 53.6504 94.6304 53.0898 95.3322C52.5293 96.034 51.7637 96.3849 50.793 96.3849C49.8997 96.3849 49.2116 95.993 48.7285 95.2092ZM48.6875 92.4474V93.3156C48.6875 93.826 48.8493 94.259 49.1729 94.6144C49.501 94.9699 49.9157 95.1476 50.417 95.1476C51.0049 95.1476 51.4652 94.9198 51.7979 94.464C52.1351 94.0037 52.3037 93.3634 52.3037 92.5431C52.3037 91.855 52.1465 91.3172 51.832 90.9299C51.5221 90.5379 51.1006 90.342 50.5674 90.342C50.0023 90.342 49.5465 90.5425 49.2002 90.9435C48.8584 91.3446 48.6875 91.8459 48.6875 92.4474Z" fill="#E8E8E8"/>
<g clip-path="url(#clip0_2_43)">
<path fill-rule="evenodd" clip-rule="evenodd" d="M29.3891 28.4915C29.7427 32.2141 30.0936 35.9157 30.4524 39.7004C31.0375 38.6944 31.4609 37.7294 32.0996 36.9391C32.6944 36.2028 33.444 35.5234 34.2597 35.0528C35.3246 34.4383 36.721 35.0169 37.0661 36.1069C37.1589 36.3992 36.9375 36.7911 36.8601 37.1375C36.5996 37 36.2637 36.9242 36.0936 36.7137C35.3706 35.8198 34.9351 35.7141 34.1355 36.4867C32.644 37.9286 31.8052 39.7351 31.4851 41.7653C31.4234 42.1581 31.669 42.5988 31.7726 43.0173C32.1802 42.877 32.6536 42.8254 32.9831 42.5802C34.054 41.7831 34.7177 40.6988 35.0839 39.4028C35.1633 39.1222 35.594 38.9411 35.8633 38.7141C35.9923 38.9794 36.2867 39.2919 36.225 39.502C35.6577 41.4536 35.0419 43.3927 34.396 45.3202C34.3307 45.5153 33.9722 45.6125 33.7492 45.7552C33.6593 45.4988 33.4702 45.2302 33.5004 44.9887C33.5682 44.4411 33.7444 43.9069 33.8673 43.4052L30.948 44.7492C31.1113 46.6129 31.2807 48.7036 31.4815 50.7915C31.6355 52.3859 31.8964 52.7988 33.4665 53.1012C35.2988 53.454 37.1653 53.6794 39.0278 53.8165C41.7798 54.0194 44.5077 53.7686 47.1851 53.0488C48.1819 52.7811 48.5794 52.1254 48.6508 51.1468C48.7161 50.2456 48.8621 49.35 48.9633 48.4512C49.1621 46.6806 49.3552 44.9097 49.5585 43.0649C48.8863 43.4907 48.3577 43.9673 47.7395 44.1694C47.2895 44.3165 46.7218 44.1012 46.2061 44.0472C46.3048 43.5738 46.2988 43.0403 46.527 42.6411C46.8988 41.9887 47.4238 41.423 47.8835 40.8206L47.6855 40.5823C47.3561 40.777 46.9468 40.9048 46.7125 41.1811C46.2359 41.7431 45.7694 42.3448 45.4504 43.0036C44.9165 44.1065 44.5097 45.2706 44.0319 46.4012C43.8242 46.8915 43.6452 47.6415 42.9496 47.3552C42.2057 47.0484 42.729 46.3931 42.9036 45.927C43.1815 45.1835 43.5484 44.473 43.7968 43.9262C43.0927 44.0101 42.379 44.1113 41.6621 44.1738C41.3589 44.1996 40.9984 44.0335 40.7504 44.1456C39.9258 44.5181 39.4032 44.3686 39.2319 43.4556C38.85 43.7036 38.5266 44.0395 38.1456 44.1298C37.6831 44.2399 37.0557 44.3121 36.7169 44.0811C36.4456 43.896 36.3468 43.2004 36.4395 42.7923C36.6238 41.9811 36.9682 41.2012 37.2952 40.4298C37.4976 39.952 37.7012 39.1891 38.3843 39.5214C39.0593 39.8492 38.4464 40.4024 38.2907 40.8464C38.0492 41.5327 37.8032 42.2177 37.5597 42.9032L37.9468 43.1371C38.3153 42.8169 38.7746 42.5561 39.0327 42.1633C39.4552 41.5214 39.7105 40.7714 40.1105 40.1125C40.2762 39.8395 40.6331 39.6831 40.9036 39.4738C40.9585 39.8214 41.0899 40.1786 41.0464 40.5141C41.0032 40.8532 40.7649 41.1633 40.6508 41.4988C40.4794 42.0012 40.3411 42.5149 40.1669 43.0992C40.9907 43.1306 41.3436 42.7839 41.5762 42.1722C42.3125 40.2395 43.0569 38.3089 43.8661 36.4061C44.0044 36.0802 44.4746 35.8964 44.7919 35.6464C44.8286 36.0391 45.0036 36.4843 44.879 36.8153C44.2157 38.569 43.471 40.2911 42.771 42.0311C42.6528 42.3242 42.6149 42.6496 42.5403 42.9601C43.7738 42.4056 44.8032 41.7927 45.179 40.4819C45.271 40.1633 45.6476 39.9266 45.8932 39.652L46.4641 40.2569C46.6375 40.1109 46.7964 39.9448 46.9847 39.8234C47.5774 39.4415 48.2157 39.1048 48.8407 39.6964C49.4875 40.3081 48.998 40.904 48.6601 41.4331C48.2923 42.0101 47.8419 42.5339 47.4274 43.0806C48.3597 42.4798 49.6327 42.2105 49.802 40.9121C50.2149 37.7407 50.5778 34.5629 50.946 31.3859C51.0552 30.4456 51.1137 29.4992 51.1988 28.5194C43.8561 30.2972 36.671 30.3081 29.3891 28.4915V28.4915ZM32.5407 53.2371C32.8944 54.1714 33.4315 55.0891 33.5722 56.0641C33.8694 58.1395 33.9448 60.2464 34.1552 62.3359C34.1859 62.6403 34.3831 63.0585 34.629 63.1923C38.25 65.1601 41.9061 65.5012 45.6004 63.3492C46.1516 63.0282 46.2536 62.6044 46.325 62.0085C46.6706 59.1129 45.9012 56.0415 47.7524 53.3149C42.5686 54.6008 37.5093 54.6407 32.5407 53.2371V53.2371ZM45.0371 29.0113C46.796 28.8415 48.5335 28.4286 50.273 28.0875C50.6008 28.0234 50.8919 27.7738 51.2 27.6097C50.794 27.2528 50.4427 27.0811 50.0758 27.0379C48.2492 26.8222 46.4161 26.6561 44.5907 26.4298C44.3149 26.3956 43.8226 26.0552 43.8432 25.9931C44.3758 24.3883 44.3496 22.5718 45.5585 21.2194C47.0863 19.5097 48.6298 17.8149 50.1617 16.1194C49.0222 14.8936 49.0069 14.8919 47.9742 15.9649C47.3903 16.5714 46.8569 17.2351 46.2234 17.7843C43.8794 19.8157 42.2331 22.2218 41.9121 25.394C41.8383 26.1218 41.4387 26.3847 40.6746 26.396C38.152 26.4327 35.6266 26.502 33.1097 26.6677C31.8625 26.7496 30.6307 27.0698 29.3915 27.2819L29.3802 27.7452C30.1557 27.9843 30.9161 28.2984 31.7081 28.4504C36.121 29.2964 40.5754 29.4415 45.0371 29.0113V29.0113ZM43.6274 27.9032C42.6286 28.7097 41.8032 28.7097 41.0061 27.9032H43.6274Z" fill="#EB4A4B"/>
</g>
<defs>
<clipPath id="clip0_2_43">
<rect width="22.5806" height="50" fill="white" transform="translate(29 15)"/>
</clipPath>
</defs>
</svg>
