<svg width="80" height="105" viewBox="0 0 80 105" fill="none" xmlns="http://www.w3.org/2000/svg">
<path d="M0 5C0 2.23858 2.23858 0 5 0H75C77.7614 0 80 2.23858 80 5V80H0V5Z" fill="#1D1D1F"/>
<path d="M0 80H80V100C80 102.761 77.7614 105 75 105H5C2.23858 105 0 102.761 0 100V80Z" fill="#303133"/>
<path d="M25.2871 96.2414H23.6533V91.9894H19.0391V96.2414H17.4121V86.4386H19.0391V90.5607H23.6533V86.4386H25.2871V96.2414ZM33.9961 87.8195H31.1797V96.2414H29.5527V87.8195H26.7432V86.4386H33.9961V87.8195ZM45.959 96.2414H44.3457V89.8976C44.3457 89.3781 44.3776 88.7424 44.4414 87.9904H44.4141C44.3138 88.4188 44.2249 88.7264 44.1475 88.9133L41.2217 96.2414H40.1006L37.168 88.9679C37.0859 88.7537 36.9993 88.4279 36.9082 87.9904H36.8809C36.9173 88.3823 36.9355 89.0226 36.9355 89.9113V96.2414H35.4316V86.4386H37.7217L40.2988 92.967C40.4948 93.4683 40.6224 93.842 40.6816 94.0881H40.7158C40.8844 93.5731 41.0212 93.1903 41.126 92.9396L43.751 86.4386H45.959V96.2414ZM53.8066 96.2414H48.3789V86.4386H50.0059V94.8674H53.8066V96.2414ZM55.0781 96.0158V94.4914C55.7207 94.9243 56.3724 95.1408 57.0332 95.1408C57.6986 95.1408 58.234 94.9722 58.6396 94.6349C59.0452 94.2931 59.248 93.8397 59.248 93.2746C59.248 92.7186 59.0407 92.2856 58.626 91.9758C58.2158 91.6659 57.6257 91.5109 56.8555 91.5109C56.5911 91.5109 56.0557 91.5383 55.249 91.5929L55.5977 86.4386H60.4238V87.7922H56.917L56.7529 90.2463C57.0674 90.228 57.3522 90.2189 57.6074 90.2189C58.6465 90.2189 59.4486 90.4855 60.0137 91.0187C60.5833 91.5519 60.8682 92.2811 60.8682 93.2062C60.8682 94.1769 60.5423 94.9562 59.8906 95.5441C59.2435 96.1274 58.3525 96.4191 57.2178 96.4191C56.2607 96.4191 55.5475 96.2847 55.0781 96.0158Z" fill="#E8E8E8"/>
<path d="M18.2598 63.6756L13.4818 10.085H65.9836L61.2008 63.6673L39.7006 69.6275L18.2598 63.6756Z" fill="#E44D26"/>
<path d="M39.7327 65.0717L57.1053 60.2551L61.1931 14.4673H39.7327V65.0717Z" fill="#F16529"/>
<path d="M39.7327 34.3434H31.035L30.435 27.6121H39.7327V21.0394H23.2517L23.4085 22.8032L25.0244 40.9154H39.7327V34.3434ZM39.7327 51.4125L39.7036 51.4202L32.3842 49.4432L31.916 44.2018H25.3178L26.2386 54.5218L39.7024 58.2596L39.7327 58.2507V51.4125Z" fill="#EBEBEB"/>
<path d="M39.7101 34.3434V40.9154H47.8035L47.0408 49.4396L39.7101 51.4184V58.256L53.1845 54.5218L53.2831 53.4109L54.8277 36.1077L54.9881 34.3434H53.2166H39.7101ZM39.7101 21.0394V27.6121H55.5863L55.7176 26.1347L56.0176 22.8032L56.175 21.0394H39.7101Z" fill="white"/>
</svg>
