<svg width="80" height="105" viewBox="0 0 80 105" fill="none" xmlns="http://www.w3.org/2000/svg">
<path d="M0 5C0 2.23858 2.23858 0 5 0H75C77.7614 0 80 2.23858 80 5V80H0V5Z" fill="#1D1D1F"/>
<path d="M0 80H80V100C80 102.761 77.7614 105 75 105H5C2.23858 105 0 102.761 0 100V80Z" fill="#303133"/>
<path d="M26.1562 96.2414H25.0078V91.7707H19.9355V96.2414H18.7871V86.4386H19.9355V90.7384H25.0078V86.4386H26.1562V96.2414ZM34.5234 87.4777H31.6934V96.2414H30.5449V87.4777H27.7217V86.4386H34.5234V87.4777ZM46.0625 96.2414H44.9209V89.6652C44.9209 89.1457 44.9528 88.5099 45.0166 87.758H44.9893C44.8799 88.2 44.7819 88.5168 44.6953 88.7082L41.3457 96.2414H40.7852L37.4424 88.7629C37.3467 88.5441 37.2487 88.2092 37.1484 87.758H37.1211C37.1576 88.1499 37.1758 88.7902 37.1758 89.6789V96.2414H36.0684V86.4386H37.5859L40.5938 93.2746C40.8262 93.7987 40.9766 94.1906 41.0449 94.4504H41.0859C41.2819 93.9126 41.4391 93.5116 41.5576 93.2472L44.627 86.4386H46.0625V96.2414ZM53.7324 96.2414H48.6465V86.4386H49.7949V95.2023H53.7324V96.2414ZM60.5752 93.2472C60.5752 93.7258 60.4932 94.1587 60.3291 94.5461C60.165 94.9334 59.9303 95.2661 59.625 95.5441C59.3242 95.8221 58.9596 96.0363 58.5312 96.1867C58.1029 96.3371 57.6266 96.4123 57.1025 96.4123C56.1911 96.4123 55.5143 96.2756 55.0723 96.0021V94.8127C55.7376 95.2411 56.4189 95.4552 57.1162 95.4552C57.4717 95.4552 57.7907 95.4028 58.0732 95.298C58.3604 95.1932 58.6042 95.0474 58.8047 94.8605C59.0052 94.6737 59.1579 94.4481 59.2627 94.1838C59.3721 93.9194 59.4268 93.6301 59.4268 93.3156C59.4268 92.6776 59.2126 92.1786 58.7842 91.8185C58.3558 91.4539 57.7337 91.2717 56.918 91.2717C56.7858 91.2717 56.6468 91.2739 56.501 91.2785C56.3551 91.283 56.2093 91.2899 56.0635 91.299C55.9176 91.3036 55.7741 91.3104 55.6328 91.3195C55.4961 91.3286 55.3708 91.34 55.2568 91.3537L55.5918 86.4386H60.124V87.4504H56.5625L56.3643 90.3283C56.5101 90.3192 56.665 90.3123 56.8291 90.3078C56.9932 90.2987 57.139 90.2941 57.2666 90.2941C57.7861 90.2941 58.251 90.3625 58.6611 90.4992C59.0713 90.6359 59.4176 90.8319 59.7002 91.0871C59.9873 91.3377 60.2038 91.6476 60.3496 92.0168C60.5 92.3814 60.5752 92.7915 60.5752 93.2472Z" fill="#E8E8E8"/>
<path d="M18.2598 63.6756L13.4818 10.085H65.9836L61.2008 63.6673L39.7006 69.6275L18.2598 63.6756Z" fill="#E44D26"/>
<path d="M39.7327 65.0717L57.1053 60.2551L61.1931 14.4673H39.7327V65.0717Z" fill="#F16529"/>
<path d="M39.7327 34.3434H31.035L30.435 27.6121H39.7327V21.0394H23.2517L23.4085 22.8032L25.0244 40.9154H39.7327V34.3434ZM39.7327 51.4125L39.7036 51.4202L32.3842 49.4432L31.916 44.2018H25.3178L26.2386 54.5218L39.7024 58.2596L39.7327 58.2507V51.4125Z" fill="#EBEBEB"/>
<path d="M39.7101 34.3434V40.9154H47.8035L47.0408 49.4396L39.7101 51.4184V58.256L53.1845 54.5218L53.2831 53.4109L54.8277 36.1077L54.9881 34.3434H53.2166H39.7101ZM39.7101 21.0394V27.6121H55.5863L55.7176 26.1347L56.0176 22.8032L56.175 21.0394H39.7101Z" fill="white"/>
</svg>
