<svg width="80" height="105" viewBox="0 0 80 105" fill="none" xmlns="http://www.w3.org/2000/svg">
<path d="M0 5C0 2.23858 2.23858 0 5 0H75C77.7614 0 80 2.23858 80 5V80H0V5Z" fill="#1D1D1F"/>
<path d="M0 80H80V100C80 102.761 77.7614 105 75 105H5C2.23858 105 0 102.761 0 100V80Z" fill="#303133"/>
<path d="M20.7559 95.9474C20.7559 97.0959 20.5143 97.98 20.0312 98.5998C19.5482 99.2241 18.8577 99.5363 17.96 99.5363C17.6273 99.5363 17.3037 99.4634 16.9893 99.3176V97.9572C17.2855 98.1623 17.5658 98.2648 17.8301 98.2648C18.7233 98.2648 19.1699 97.4764 19.1699 95.8996V89.2414H20.7559V95.9474ZM19.9766 87.7717C19.7168 87.7717 19.4935 87.6873 19.3066 87.5187C19.1243 87.3501 19.0332 87.1359 19.0332 86.8761C19.0332 86.6164 19.1243 86.3999 19.3066 86.2267C19.4935 86.0536 19.7168 85.967 19.9766 85.967C20.2409 85.967 20.4665 86.0536 20.6533 86.2267C20.8402 86.3999 20.9336 86.6164 20.9336 86.8761C20.9336 87.1222 20.8402 87.3342 20.6533 87.5119C20.4665 87.6851 20.2409 87.7717 19.9766 87.7717ZM27.0518 96.4054C26.3454 96.4054 25.7051 96.2847 25.1309 96.0431C24.5566 95.8016 24.0667 95.4644 23.6611 95.0314C23.2555 94.5939 22.9411 94.0721 22.7178 93.466C22.4945 92.8599 22.3828 92.1899 22.3828 91.4562C22.3828 90.6724 22.4945 89.9614 22.7178 89.3234C22.9456 88.6854 23.2669 88.1408 23.6816 87.6896C24.1009 87.2384 24.609 86.8898 25.2061 86.6437C25.8031 86.3976 26.4707 86.2746 27.209 86.2746C27.8926 86.2746 28.5169 86.3954 29.082 86.6369C29.6471 86.8784 30.1302 87.2179 30.5312 87.6554C30.9323 88.0884 31.2422 88.6079 31.4609 89.214C31.6842 89.8202 31.7959 90.4878 31.7959 91.217C31.7959 92.1831 31.6341 93.0308 31.3105 93.7599C30.987 94.4845 30.5312 95.0679 29.9434 95.5099L32.7871 97.5607H30.3125L28.5625 96.2004C28.3301 96.2642 28.0885 96.3143 27.8379 96.3508C27.5872 96.3872 27.3252 96.4054 27.0518 96.4054ZM27.127 87.7033C26.6803 87.7033 26.2702 87.7922 25.8965 87.9699C25.5273 88.1431 25.2083 88.3914 24.9395 88.715C24.6706 89.034 24.4609 89.4168 24.3105 89.8634C24.1647 90.3101 24.0918 90.8068 24.0918 91.3537C24.0918 91.896 24.1624 92.3905 24.3037 92.8371C24.4495 93.2837 24.6523 93.6665 24.9121 93.9855C25.1719 94.3 25.484 94.5461 25.8486 94.7238C26.2132 94.897 26.6165 94.9836 27.0586 94.9836C27.528 94.9836 27.9495 94.9015 28.3232 94.7375C28.6969 94.5734 29.0137 94.3387 29.2734 94.0334C29.5378 93.7235 29.7406 93.3452 29.8818 92.8986C30.0231 92.452 30.0938 91.9439 30.0938 91.3742C30.0938 90.7909 30.0254 90.2713 29.8887 89.8156C29.752 89.3599 29.556 88.9771 29.3008 88.6672C29.0456 88.3527 28.7334 88.1134 28.3643 87.9494C27.9997 87.7853 27.5872 87.7033 27.127 87.7033ZM39.5205 96.2414H37.9346V95.134H37.9072C37.4469 95.9816 36.7314 96.4054 35.7607 96.4054C34.1064 96.4054 33.2793 95.412 33.2793 93.425V89.2414H34.8652V93.2609C34.8652 94.5187 35.3506 95.1476 36.3213 95.1476C36.7907 95.1476 37.1758 94.9745 37.4766 94.6281C37.7819 94.2817 37.9346 93.8283 37.9346 93.2677V89.2414H39.5205V96.2414ZM47.5186 93.172H42.7471C42.7653 93.8192 42.9635 94.3182 43.3418 94.6691C43.7246 95.02 44.2487 95.1955 44.9141 95.1955C45.6615 95.1955 46.3473 94.9722 46.9717 94.5256V95.8039C46.3337 96.2049 45.4906 96.4054 44.4424 96.4054C43.4124 96.4054 42.6035 96.0887 42.0156 95.4552C41.4323 94.8172 41.1406 93.9217 41.1406 92.7687C41.1406 91.6795 41.4619 90.7931 42.1045 90.1095C42.7516 89.4214 43.5537 89.0773 44.5107 89.0773C45.4678 89.0773 46.2083 89.3849 46.7324 90.0002C47.2565 90.6154 47.5186 91.4699 47.5186 92.5636V93.172ZM45.9873 92.0509C45.9827 91.4813 45.8483 91.0392 45.584 90.7248C45.3197 90.4058 44.9551 90.2463 44.4902 90.2463C44.0345 90.2463 43.6471 90.4126 43.3281 90.7453C43.0137 91.078 42.82 91.5132 42.7471 92.0509H45.9873ZM53.0898 90.7521C52.8984 90.6017 52.6227 90.5265 52.2627 90.5265C51.7933 90.5265 51.4014 90.7384 51.0869 91.1623C50.7725 91.5861 50.6152 92.1626 50.6152 92.8918V96.2414H49.0293V89.2414H50.6152V90.6838H50.6426C50.7975 90.1916 51.0345 89.8088 51.3535 89.5353C51.6771 89.2573 52.0371 89.1183 52.4336 89.1183C52.7207 89.1183 52.9395 89.1616 53.0898 89.2482V90.7521ZM60.835 89.2414L57.6768 97.3625C57.0205 98.8117 56.0999 99.5363 54.915 99.5363C54.5824 99.5363 54.3044 99.5067 54.0811 99.4474V98.1281C54.3317 98.2101 54.5596 98.2511 54.7646 98.2511C55.3571 98.2511 55.7992 97.9595 56.0908 97.3761L56.5625 96.2277L53.7803 89.2414H55.5371L57.2051 94.3273C57.2233 94.3911 57.2643 94.5597 57.3281 94.8332H57.3623C57.3851 94.7284 57.4261 94.5643 57.4854 94.341L59.2354 89.2414H60.835Z" fill="#E8E8E8"/>
<path d="M40 65C53.8071 65 65 53.8071 65 40C65 26.1929 53.8071 15 40 15C26.1929 15 15 26.1929 15 40C15 53.8071 26.1929 65 40 65Z" fill="#0769AD"/>
<path d="M26.3574 32.0215C23.5937 35.9961 23.9355 41.1719 26.0449 45.4004C26.0937 45.498 26.1523 45.5957 26.2012 45.7031C26.2305 45.7715 26.2695 45.8301 26.2988 45.8984C26.3183 45.9375 26.3379 45.9668 26.3574 46.0059C26.3965 46.0742 26.4258 46.1328 26.4648 46.2012C26.5332 46.3184 26.6015 46.4355 26.6699 46.543C26.709 46.6113 26.748 46.6699 26.7871 46.7285C26.8652 46.8457 26.9433 46.9727 27.0215 47.0996C27.0508 47.1484 27.0898 47.207 27.1191 47.2559C27.2265 47.4219 27.3437 47.5781 27.4609 47.7441L27.4707 47.7539C27.4902 47.7832 27.5098 47.8027 27.5293 47.832C27.6269 47.9688 27.7344 48.1055 27.8418 48.2422C27.8808 48.291 27.9199 48.3398 27.959 48.3887C28.0566 48.5059 28.1445 48.623 28.2422 48.7402C28.2812 48.7793 28.3105 48.8281 28.3496 48.8672C28.4765 49.0234 28.6133 49.1699 28.75 49.3262L28.7598 49.3359C28.7695 49.3457 28.7695 49.3457 28.7793 49.3555C28.9062 49.502 29.043 49.6387 29.1797 49.7852C29.2187 49.834 29.2676 49.873 29.3066 49.9121C29.414 50.0195 29.5215 50.127 29.6289 50.2344C29.6777 50.2734 29.7168 50.3223 29.7656 50.3613C29.9121 50.498 30.0586 50.6348 30.2051 50.7617C30.2051 50.7617 30.2051 50.7617 30.2148 50.7617C30.2441 50.7813 30.2637 50.8105 30.293 50.8301C30.4297 50.9473 30.5566 51.0547 30.6933 51.1719C30.7519 51.2207 30.8008 51.2598 30.8594 51.3086C30.9668 51.3965 31.084 51.4844 31.1914 51.5723C31.25 51.6211 31.3086 51.6602 31.3672 51.709C31.4941 51.7969 31.6113 51.8945 31.7383 51.9824C31.7871 52.0215 31.8262 52.0508 31.875 52.0801C31.8848 52.0898 31.9043 52.0996 31.914 52.1094C32.0312 52.1973 32.1582 52.2754 32.2851 52.3535C32.334 52.3926 32.3926 52.4219 32.4414 52.4609C32.6269 52.5781 32.8223 52.6953 33.0176 52.8125C33.0664 52.8418 33.125 52.8711 33.1738 52.9004C33.3203 52.9785 33.457 53.0566 33.6035 53.1445C33.6816 53.1836 33.7598 53.2227 33.8379 53.2617C33.9453 53.3105 34.043 53.3691 34.1406 53.418C34.1601 53.4277 34.1894 53.4375 34.209 53.457C34.248 53.4766 34.2969 53.4961 34.3359 53.5156C34.4922 53.5938 34.6582 53.6719 34.8242 53.7402C34.8633 53.7598 34.8926 53.7695 34.9316 53.7891C35.1172 53.877 35.3125 53.9551 35.498 54.0234C35.5469 54.043 35.5859 54.0625 35.6348 54.082C35.8105 54.1504 35.9863 54.2188 36.1719 54.2773C36.1914 54.2871 36.2207 54.2871 36.2402 54.2969C36.4355 54.3652 36.6406 54.4336 36.8359 54.4922C36.8848 54.502 36.9336 54.5215 36.9824 54.5312C37.1875 54.5996 37.3828 54.668 37.5976 54.707C50.9765 57.1484 54.8633 46.6699 54.8633 46.6699C51.6015 50.918 45.8105 52.041 40.3125 50.791C40.1074 50.7422 39.9023 50.6836 39.6973 50.6152C39.6484 50.6055 39.5996 50.5859 39.541 50.5664C39.3457 50.5078 39.1504 50.4395 38.9551 50.3711C38.9258 50.3613 38.8965 50.3516 38.8769 50.3418C38.7012 50.2734 38.5254 50.2148 38.3594 50.1465C38.3105 50.127 38.2617 50.1074 38.2129 50.0879C38.0273 50.0098 37.832 49.9316 37.6465 49.8535C37.6074 49.834 37.5683 49.8242 37.539 49.8047C37.3828 49.7363 37.2265 49.6582 37.0605 49.5801C37.0117 49.5605 36.9726 49.541 36.9238 49.5117C36.8066 49.4531 36.6797 49.3848 36.5527 49.3262C36.4746 49.2871 36.3867 49.2383 36.3086 49.1992C36.1621 49.1211 36.0156 49.043 35.8691 48.9551C35.8203 48.9258 35.7715 48.9063 35.7226 48.877C35.5273 48.7598 35.3418 48.6426 35.1465 48.5254C35.0976 48.4961 35.039 48.457 34.9902 48.4277C34.8535 48.3398 34.7168 48.252 34.5801 48.1543C34.5312 48.125 34.4922 48.0859 34.4531 48.0664C34.3262 47.9785 34.1992 47.8809 34.0723 47.7832C34.0137 47.7441 33.9551 47.6953 33.9062 47.6562C33.789 47.5684 33.6719 47.4805 33.5547 47.3828C33.5058 47.3438 33.4473 47.2949 33.3984 47.2559C33.2519 47.1387 33.1055 47.0117 32.9687 46.8945C32.9492 46.8848 32.9394 46.8652 32.9199 46.8555C32.7637 46.7188 32.6172 46.582 32.4609 46.4453C32.4121 46.4063 32.373 46.3672 32.334 46.3281C32.2265 46.2207 32.1094 46.1133 32.0117 46.0059C31.9726 45.9668 31.9238 45.918 31.8848 45.8789C31.748 45.7422 31.6113 45.5957 31.4844 45.4492C31.4746 45.4395 31.4746 45.4395 31.4648 45.4297C31.3281 45.2734 31.1914 45.127 31.0547 44.9707C31.0156 44.9316 30.9863 44.8828 30.9473 44.8438C30.8496 44.7266 30.7519 44.5996 30.6543 44.4824C30.6152 44.4434 30.5859 44.3945 30.5469 44.3457C30.4297 44.1992 30.3223 44.043 30.2051 43.8965C27.1582 39.7363 26.0644 34.0039 28.4961 29.2969" fill="white"/>
<path d="M34.9512 28.6621C32.9492 31.543 33.0566 35.4004 34.6191 38.4375C34.8828 38.9453 35.1758 39.4434 35.5078 39.9121C35.8105 40.3418 36.1426 40.8496 36.5332 41.2012C36.6797 41.3574 36.8262 41.5137 36.9824 41.6699C37.0215 41.709 37.0605 41.748 37.0996 41.7871C37.2461 41.9336 37.4023 42.0703 37.5586 42.2168C37.5683 42.2266 37.5683 42.2266 37.5781 42.2363C37.7539 42.3926 37.9297 42.5391 38.1152 42.6758C38.1543 42.7051 38.1933 42.7441 38.2324 42.7734C38.418 42.9102 38.6035 43.0469 38.7891 43.1836C38.7988 43.1836 38.7988 43.1934 38.8086 43.1934C38.8965 43.252 38.9746 43.3008 39.0625 43.3594C39.1015 43.3887 39.1406 43.418 39.1797 43.4375C39.3164 43.5254 39.4531 43.6133 39.5898 43.6914C39.6094 43.7012 39.6289 43.7109 39.6484 43.7305C39.7656 43.7988 39.8926 43.8672 40.0195 43.9355C40.0586 43.9551 40.1074 43.9844 40.1465 44.0039C40.2344 44.0527 40.3125 44.0918 40.4004 44.1406C40.4101 44.1504 40.4297 44.1504 40.4394 44.1602C40.6152 44.248 40.791 44.3262 40.9765 44.4141C41.0156 44.4336 41.0547 44.4434 41.0937 44.4629C41.2402 44.5215 41.3867 44.5801 41.5332 44.6387C41.5918 44.6582 41.6601 44.6875 41.7187 44.707C41.8555 44.7559 41.9922 44.8047 42.1191 44.8438C42.1777 44.8633 42.2363 44.8828 42.3047 44.9023C42.5 44.9609 42.6855 45.0391 42.8906 45.0684C53.2422 46.7773 55.625 38.8281 55.625 38.8281C53.4765 41.9238 49.3164 43.3984 44.873 42.2461C44.6777 42.1973 44.4824 42.1387 44.2871 42.0801C44.2285 42.0605 44.1699 42.041 44.1113 42.0215C43.9746 41.9727 43.8379 41.9336 43.7012 41.875C43.6426 41.8555 43.5742 41.8262 43.5156 41.8066C43.3691 41.748 43.2226 41.6895 43.0762 41.6309C43.0371 41.6113 42.998 41.6016 42.959 41.582C42.7734 41.5039 42.5976 41.416 42.4219 41.3281C42.334 41.2891 42.2363 41.2402 42.1484 41.1914C42.0996 41.1621 42.041 41.1328 41.9922 41.1133C41.875 41.0547 41.7676 40.9863 41.6504 40.918C41.6211 40.8984 41.5918 40.8887 41.5723 40.8691C41.4355 40.791 41.2988 40.7031 41.1621 40.6152C41.123 40.5859 41.0742 40.5566 41.0351 40.5273C40.9473 40.4687 40.8594 40.4102 40.7715 40.3516C40.5762 40.2246 40.4004 40.0781 40.2148 39.9414C40.1758 39.9023 40.1269 39.873 40.0879 39.8437C38.1445 38.3105 36.6015 36.2109 35.8691 33.8281C35.0976 31.3574 35.2637 28.5938 36.6015 26.3477" fill="white"/>
<path d="M42.1679 26.1621C40.9863 27.9004 40.8691 30.0488 41.6894 31.9727C42.5488 34.0137 44.3164 35.6055 46.3867 36.3574C46.4746 36.3867 46.5527 36.416 46.6406 36.4453C46.6797 36.4551 46.7187 36.4648 46.7578 36.4844C46.875 36.5234 47.0019 36.5625 47.1289 36.5918C52.832 37.6953 54.375 33.6621 54.7949 33.0664C53.4375 35.0195 51.1621 35.4883 48.3691 34.8047C48.1445 34.7559 47.9101 34.668 47.6953 34.5996C47.4219 34.502 47.1484 34.3945 46.8945 34.2676C46.3965 34.0332 45.9277 33.7402 45.4883 33.4082C42.9883 31.5137 41.4355 27.8906 43.0664 24.9414" fill="white"/>
</svg>
