<svg width="80" height="105" viewBox="0 0 80 105" fill="none" xmlns="http://www.w3.org/2000/svg">
<path d="M0 5C0 2.23858 2.23858 0 5 0H75C77.7614 0 80 2.23858 80 5V80H0V5Z" fill="#1D1D1F"/>
<path d="M0 80H80V100C80 102.761 77.7614 105 75 105H5C2.23858 105 0 102.761 0 100V80Z" fill="#303133"/>
<path d="M23.7568 96.2414H18.3291V86.4386H19.9561V94.8674H23.7568V96.2414ZM30.374 96.2414H28.8359V95.1476H28.8086C28.3255 95.9862 27.6169 96.4054 26.6826 96.4054C25.9945 96.4054 25.4544 96.2186 25.0625 95.8449C24.6751 95.4712 24.4814 94.9767 24.4814 94.3615C24.4814 93.0399 25.2425 92.2697 26.7646 92.0509L28.8428 91.757C28.8428 90.759 28.3688 90.2599 27.4209 90.2599C26.5869 90.2599 25.835 90.547 25.165 91.1213V89.7336C25.9033 89.2961 26.7555 89.0773 27.7217 89.0773C29.4899 89.0773 30.374 89.9478 30.374 91.6886V96.2414ZM28.8428 92.8029L27.373 93.008C26.9173 93.0672 26.5732 93.1789 26.3408 93.3429C26.113 93.5024 25.999 93.785 25.999 94.1906C25.999 94.4868 26.1038 94.7306 26.3135 94.922C26.5277 95.1089 26.8125 95.2023 27.168 95.2023C27.651 95.2023 28.0498 95.0337 28.3643 94.6965C28.6833 94.3547 28.8428 93.9263 28.8428 93.4113V92.8029ZM36.376 90.7521C36.1846 90.6017 35.9089 90.5265 35.5488 90.5265C35.0794 90.5265 34.6875 90.7384 34.373 91.1623C34.0586 91.5861 33.9014 92.1626 33.9014 92.8918V96.2414H32.3154V89.2414H33.9014V90.6838H33.9287C34.0837 90.1916 34.3206 89.8088 34.6396 89.5353C34.9632 89.2573 35.3232 89.1183 35.7197 89.1183C36.0068 89.1183 36.2256 89.1616 36.376 89.2482V90.7521ZM42.8701 96.2414H41.332V95.1476H41.3047C40.8216 95.9862 40.113 96.4054 39.1787 96.4054C38.4906 96.4054 37.9505 96.2186 37.5586 95.8449C37.1712 95.4712 36.9775 94.9767 36.9775 94.3615C36.9775 93.0399 37.7386 92.2697 39.2607 92.0509L41.3389 91.757C41.3389 90.759 40.8649 90.2599 39.917 90.2599C39.083 90.2599 38.3311 90.547 37.6611 91.1213V89.7336C38.3994 89.2961 39.2516 89.0773 40.2178 89.0773C41.986 89.0773 42.8701 89.9478 42.8701 91.6886V96.2414ZM41.3389 92.8029L39.8691 93.008C39.4134 93.0672 39.0693 93.1789 38.8369 93.3429C38.609 93.5024 38.4951 93.785 38.4951 94.1906C38.4951 94.4868 38.5999 94.7306 38.8096 94.922C39.0238 95.1089 39.3086 95.2023 39.6641 95.2023C40.1471 95.2023 40.5459 95.0337 40.8604 94.6965C41.1794 94.3547 41.3389 93.9263 41.3389 93.4113V92.8029ZM50.8408 89.2414L48.1338 96.2414H46.418L43.8408 89.2414H45.5635L47.1152 94.1359C47.2337 94.4959 47.3066 94.8104 47.334 95.0793H47.3545C47.3955 94.742 47.4593 94.4367 47.5459 94.1633L49.1729 89.2414H50.8408ZM57.7383 93.172H52.9668C52.985 93.8192 53.1833 94.3182 53.5615 94.6691C53.9443 95.02 54.4684 95.1955 55.1338 95.1955C55.8812 95.1955 56.5671 94.9722 57.1914 94.5256V95.8039C56.5534 96.2049 55.7103 96.4054 54.6621 96.4054C53.6322 96.4054 52.8232 96.0887 52.2354 95.4552C51.652 94.8172 51.3604 93.9217 51.3604 92.7687C51.3604 91.6795 51.6816 90.7931 52.3242 90.1095C52.9714 89.4214 53.7734 89.0773 54.7305 89.0773C55.6875 89.0773 56.4281 89.3849 56.9521 90.0002C57.4762 90.6154 57.7383 91.4699 57.7383 92.5636V93.172ZM56.207 92.0509C56.2025 91.4813 56.068 91.0392 55.8037 90.7248C55.5394 90.4058 55.1748 90.2463 54.71 90.2463C54.2542 90.2463 53.8669 90.4126 53.5479 90.7453C53.2334 91.078 53.0397 91.5132 52.9668 92.0509H56.207ZM60.8418 96.2414H59.249V85.8781H60.8418V96.2414Z" fill="#E8E8E8"/>
<g clip-path="url(#clip0_2_43)">
<path d="M64.4795 26.3869C64.4719 26.3643 64.4628 26.3421 64.4523 26.3207C64.4383 26.2787 64.421 26.238 64.4006 26.1988C64.3848 26.1745 64.3672 26.1514 64.348 26.1296C64.3265 26.0976 64.3031 26.067 64.2778 26.038C64.2554 26.0166 64.2271 25.999 64.2027 25.9795C64.1749 25.9556 64.1456 25.9335 64.115 25.9133L54.733 20.5117C54.6144 20.4433 54.48 20.4072 54.3431 20.4072C54.2062 20.4072 54.0718 20.4433 53.9532 20.5117L44.5692 25.9162C44.5391 25.9366 44.5104 25.9591 44.4834 25.9834C44.4569 26.0013 44.4315 26.0208 44.4074 26.0419C44.3819 26.0704 44.3584 26.1007 44.3372 26.1326C44.3207 26.1559 44.2992 26.1764 44.2846 26.2018C44.2649 26.2411 44.248 26.2818 44.2339 26.3236C44.2261 26.346 44.2135 26.3665 44.2066 26.3899C44.1888 26.456 44.1796 26.5241 44.1793 26.5926V36.8499L36.3606 41.3519V21.2807C36.3608 21.2119 36.3516 21.1434 36.3333 21.077C36.3275 21.0536 36.3138 21.0331 36.306 21.0107C36.2924 20.9691 36.2755 20.9287 36.2554 20.8899C36.2417 20.8645 36.2193 20.8441 36.2027 20.8197C36.1813 20.7877 36.1579 20.7571 36.1326 20.7281C36.1083 20.7073 36.0829 20.6878 36.0565 20.6696C36.0292 20.6459 36.0006 20.6238 35.9708 20.6033V20.6033L26.5858 15.2018C26.4672 15.1333 26.3328 15.0973 26.1959 15.0973C26.059 15.0973 25.9246 15.1333 25.806 15.2018L16.423 20.6033C16.3925 20.6232 16.3638 20.6457 16.3372 20.6706C16.3104 20.6884 16.2846 20.7079 16.2602 20.729C16.235 20.7576 16.2119 20.7879 16.191 20.8197C16.1735 20.8441 16.1521 20.8645 16.1374 20.8899C16.1175 20.9287 16.1008 20.9691 16.0877 21.0107C16.0771 21.0319 16.0676 21.0537 16.0595 21.076C16.0415 21.1428 16.0324 21.2116 16.0322 21.2807V53.4152C16.0318 53.5524 16.0676 53.6873 16.1361 53.8063C16.2046 53.9252 16.3032 54.024 16.422 54.0926L35.1842 64.8957C35.2259 64.9167 35.2693 64.9343 35.3138 64.9483C35.3343 64.9561 35.3538 64.9678 35.3752 64.9737C35.5061 65.0088 35.644 65.0088 35.7749 64.9737C35.7944 64.9688 35.8109 64.9581 35.8285 64.9522C35.8755 64.9375 35.9212 64.9185 35.9649 64.8957L54.733 54.0926C54.8518 54.024 54.9504 53.9252 55.0189 53.8063C55.0873 53.6873 55.1232 53.5524 55.1228 53.4152V43.1559L64.1131 37.9795C64.2326 37.9105 64.3317 37.811 64.4002 37.6911C64.4687 37.5712 64.5042 37.4353 64.5029 37.2973V26.5906C64.5035 26.522 64.4956 26.4536 64.4795 26.3869V26.3869ZM26.1949 16.7817L34.0107 21.2797L26.194 25.7807L18.3791 21.2807L26.1949 16.7817ZM34.7963 22.6296V42.2515L30.2612 44.8626L26.9776 46.7534V27.1345L31.5127 24.5234L34.7963 22.6296ZM34.7963 62.8616L17.5955 52.963V22.6335L20.8791 24.5224L25.4133 27.1345V48.1072C25.4152 48.1367 25.4191 48.166 25.425 48.1949C25.4273 48.2336 25.4325 48.272 25.4406 48.3099V48.3099C25.4505 48.3402 25.4628 48.3695 25.4776 48.3977C25.4884 48.4313 25.5021 48.4639 25.5185 48.4951C25.5365 48.5216 25.5561 48.547 25.577 48.5712C25.5965 48.5999 25.618 48.6273 25.6413 48.653V48.653C25.6637 48.6745 25.692 48.6901 25.7164 48.7096C25.743 48.7327 25.771 48.7542 25.8002 48.7739V48.7739L34.7856 53.8597L34.7963 62.8616ZM35.576 52.5136L27.7729 48.0965L35.9688 43.3782L44.961 38.2018L52.771 42.6979L47.04 45.9688L35.576 52.5136ZM53.5604 52.9591L36.3587 62.8665V53.8694L49.0994 46.5984L53.5604 44.0497V52.9591ZM53.5604 41.348L50.2768 39.4639L45.7417 36.8528V27.9425L49.0253 29.8333L53.5604 32.4464V41.348ZM54.3402 31.0867L46.5234 26.5867L54.3402 22.0877L62.155 26.5858L54.3402 31.0867ZM55.1199 41.348V32.4464L59.6647 29.8333L62.9474 27.9425V36.8499L55.1199 41.348Z" fill="#FF2D20"/>
</g>
<defs>
<clipPath id="clip0_2_43">
<rect width="48.538" height="50" fill="white" transform="translate(16 15)"/>
</clipPath>
</defs>
</svg>
