<svg width="80" height="105" viewBox="0 0 80 105" fill="none" xmlns="http://www.w3.org/2000/svg">
<path d="M0 5C0 2.23858 2.23858 0 5 0H75C77.7614 0 80 2.23858 80 5V80H0V5Z" fill="#1D1D1F"/>
<path d="M0 80H80V100C80 102.761 77.7614 105 75 105H5C2.23858 105 0 102.761 0 100V80Z" fill="#303133"/>
<path d="M28.1719 96.2414H26.5586V89.8976C26.5586 89.3781 26.5905 88.7424 26.6543 87.9904H26.627C26.5267 88.4188 26.4378 88.7264 26.3604 88.9133L23.4346 96.2414H22.3135L19.3809 88.9679C19.2988 88.7537 19.2122 88.4279 19.1211 87.9904H19.0938C19.1302 88.3823 19.1484 89.0226 19.1484 89.9113V96.2414H17.6445V86.4386H19.9346L22.5117 92.967C22.7077 93.4683 22.8353 93.842 22.8945 94.0881H22.9287C23.0973 93.5731 23.234 93.1903 23.3389 92.9396L25.9639 86.4386H28.1719V96.2414ZM36.4775 89.2414L33.3193 97.3625C32.6631 98.8117 31.7425 99.5363 30.5576 99.5363C30.2249 99.5363 29.9469 99.5067 29.7236 99.4474V98.1281C29.9743 98.2101 30.2021 98.2511 30.4072 98.2511C30.9997 98.2511 31.4417 97.9595 31.7334 97.3761L32.2051 96.2277L29.4229 89.2414H31.1797L32.8477 94.3273C32.8659 94.3911 32.9069 94.5597 32.9707 94.8332H33.0049C33.0277 94.7284 33.0687 94.5643 33.1279 94.341L34.8779 89.2414H36.4775ZM37.2637 95.8517V94.1769C37.4141 94.3136 37.5918 94.4367 37.7969 94.5461C38.0065 94.6554 38.2275 94.7489 38.46 94.8263C38.6924 94.8993 38.9248 94.9562 39.1572 94.9972C39.3896 95.0383 39.6038 95.0588 39.7998 95.0588C40.4834 95.0588 40.9915 94.9448 41.3242 94.717C41.6615 94.4891 41.8301 94.1587 41.8301 93.7258C41.8301 93.4933 41.7731 93.2928 41.6592 93.1242C41.5498 92.951 41.3949 92.7938 41.1943 92.6525C40.9938 92.5112 40.7568 92.3768 40.4834 92.2492C40.2145 92.117 39.9251 91.9803 39.6152 91.839C39.2826 91.6613 38.9727 91.4813 38.6855 91.299C38.3984 91.1167 38.1478 90.9162 37.9336 90.6974C37.724 90.4741 37.5576 90.2235 37.4346 89.9455C37.3161 89.6675 37.2568 89.3416 37.2568 88.9679C37.2568 88.5077 37.3594 88.1089 37.5645 87.7717C37.7741 87.4299 38.0475 87.1496 38.3848 86.9308C38.7266 86.7075 39.1139 86.5435 39.5469 86.4386C39.9798 86.3293 40.4219 86.2746 40.873 86.2746C41.8984 86.2746 42.6458 86.3908 43.1152 86.6232V88.2297C42.5592 87.8286 41.8438 87.6281 40.9688 87.6281C40.7272 87.6281 40.4857 87.6509 40.2441 87.6965C40.0072 87.742 39.793 87.8172 39.6016 87.922C39.4147 88.0269 39.262 88.1613 39.1436 88.3254C39.0251 88.4894 38.9658 88.6877 38.9658 88.9201C38.9658 89.1388 39.0114 89.328 39.1025 89.4875C39.1937 89.647 39.3258 89.7928 39.499 89.925C39.6768 90.0571 39.891 90.187 40.1416 90.3146C40.3968 90.4377 40.6908 90.5721 41.0234 90.7179C41.3652 90.8957 41.6865 91.0825 41.9873 91.2785C42.2926 91.4745 42.5592 91.6909 42.7871 91.9279C43.0195 92.1649 43.2018 92.4292 43.334 92.7209C43.4707 93.008 43.5391 93.3361 43.5391 93.7052C43.5391 94.202 43.4388 94.6213 43.2383 94.9631C43.0378 95.3049 42.7666 95.5829 42.4248 95.797C42.0876 96.0112 41.6979 96.1662 41.2559 96.2619C40.8138 96.3576 40.3467 96.4054 39.8545 96.4054C39.6904 96.4054 39.4876 96.3918 39.2461 96.3644C39.0091 96.3416 38.7653 96.3052 38.5146 96.2551C38.264 96.2095 38.027 96.1525 37.8037 96.0842C37.5804 96.0158 37.4004 95.9383 37.2637 95.8517ZM49.3838 96.4054C48.6774 96.4054 48.0371 96.2847 47.4629 96.0431C46.8887 95.8016 46.3988 95.4644 45.9932 95.0314C45.5876 94.5939 45.2731 94.0721 45.0498 93.466C44.8265 92.8599 44.7148 92.1899 44.7148 91.4562C44.7148 90.6724 44.8265 89.9614 45.0498 89.3234C45.2777 88.6854 45.599 88.1408 46.0137 87.6896C46.4329 87.2384 46.9411 86.8898 47.5381 86.6437C48.1351 86.3976 48.8027 86.2746 49.541 86.2746C50.2246 86.2746 50.849 86.3954 51.4141 86.6369C51.9792 86.8784 52.4622 87.2179 52.8633 87.6554C53.2643 88.0884 53.5742 88.6079 53.793 89.214C54.0163 89.8202 54.1279 90.4878 54.1279 91.217C54.1279 92.1831 53.9661 93.0308 53.6426 93.7599C53.319 94.4845 52.8633 95.0679 52.2754 95.5099L55.1191 97.5607H52.6445L50.8945 96.2004C50.6621 96.2642 50.4206 96.3143 50.1699 96.3508C49.9193 96.3872 49.6572 96.4054 49.3838 96.4054ZM49.459 87.7033C49.0124 87.7033 48.6022 87.7922 48.2285 87.9699C47.8594 88.1431 47.5404 88.3914 47.2715 88.715C47.0026 89.034 46.793 89.4168 46.6426 89.8634C46.4967 90.3101 46.4238 90.8068 46.4238 91.3537C46.4238 91.896 46.4945 92.3905 46.6357 92.8371C46.7816 93.2837 46.9844 93.6665 47.2441 93.9855C47.5039 94.3 47.8161 94.5461 48.1807 94.7238C48.5452 94.897 48.9486 94.9836 49.3906 94.9836C49.86 94.9836 50.2816 94.9015 50.6553 94.7375C51.029 94.5734 51.3457 94.3387 51.6055 94.0334C51.8698 93.7235 52.0726 93.3452 52.2139 92.8986C52.3551 92.452 52.4258 91.9439 52.4258 91.3742C52.4258 90.7909 52.3574 90.2713 52.2207 89.8156C52.084 89.3599 51.888 88.9771 51.6328 88.6672C51.3776 88.3527 51.0654 88.1134 50.6963 87.9494C50.3317 87.7853 49.9193 87.7033 49.459 87.7033ZM61.3535 96.2414H55.9258V86.4386H57.5527V94.8674H61.3535V96.2414Z" fill="#E8E8E8"/>
<path fill-rule="evenodd" clip-rule="evenodd" d="M27.1161 23.6875C26.6431 23.686 26.1718 23.746 25.7143 23.8661V23.9286H25.7822C26.1098 24.4232 26.4752 24.8919 26.875 25.3304C27.15 25.8768 27.3893 26.4214 27.6625 26.9679C27.6964 26.9339 27.7304 26.8982 27.7304 26.8982C27.984 26.6968 28.1826 26.4345 28.3075 26.1357C28.4324 25.8369 28.4796 25.5113 28.4447 25.1893C28.2951 24.9587 28.158 24.7202 28.0339 24.475C27.8286 24.1339 27.3839 23.9625 27.1107 23.6893" fill="#5D87A1"/>
<path fill-rule="evenodd" clip-rule="evenodd" d="M61.0357 53.4875C58.7832 53.3293 56.5229 53.6556 54.4072 54.4446C53.8947 54.65 53.0768 54.65 53.0054 55.2982C53.2804 55.5714 53.3125 56.0125 53.5536 56.3929C54.0213 57.1847 54.6224 57.8898 55.3304 58.4768C56.0447 59.0232 56.7589 59.5679 57.5179 60.0464C58.8482 60.8696 60.3536 61.3464 61.65 62.1661C62.4036 62.6446 63.1536 63.2589 63.9072 63.7732C64.2822 64.0464 64.5197 64.4875 64.9982 64.6661V64.5625C64.8576 64.183 64.6837 63.8167 64.4786 63.4679C64.1375 63.1286 63.7947 62.8196 63.4518 62.4786C62.4501 61.1541 61.2518 59.9906 59.8982 59.0286C58.8036 58.275 56.4107 57.2429 55.9697 55.9929L55.9 55.9232C56.701 55.8097 57.4904 55.6257 58.2589 55.3732C59.4197 55.0661 60.4786 55.1357 61.6732 54.8375C62.2214 54.7 63.2125 54.3589 63.2125 54.3589V53.8232C62.6018 53.2161 62.1643 52.4036 61.5214 51.8304C59.7725 50.3037 57.9087 48.9139 55.9464 47.6732C54.8982 46.9964 53.5464 46.5607 52.4304 45.9839C52.0268 45.7804 51.3589 45.6804 51.1143 45.3411C50.5592 44.5267 50.0946 43.6543 49.7286 42.7393C48.75 40.8821 47.8018 38.8232 46.9589 36.8589C46.4601 35.5425 45.8847 34.2564 45.2357 33.0071C42.1042 27.683 37.5841 23.3104 32.1589 20.3571C30.7901 19.6946 29.3347 19.2281 27.8357 18.9714C26.9893 18.9357 26.1464 18.8696 25.3018 18.8375C24.7566 18.4803 24.2379 18.084 23.75 17.6518C21.8179 16.4286 16.8536 13.8 15.4322 17.2804C14.5214 19.4786 16.7857 21.6393 17.5625 22.7554C18.2175 23.5423 18.7946 24.3909 19.2857 25.2893C19.5232 25.8643 19.5911 26.4732 19.8214 27.075C20.3171 28.6198 20.9057 30.1333 21.5839 31.6071C21.9467 32.3356 22.3646 33.0352 22.8339 33.7C23.1072 34.0732 23.5786 34.2357 23.6804 34.8518C23.3059 35.6567 23.0439 36.5094 22.9018 37.3857C22.3115 39.2498 22.0943 41.2119 22.2625 43.16C22.4307 45.1081 22.9811 47.004 23.8822 48.7393C24.4179 49.5839 25.7072 51.4429 27.4304 50.7321C28.95 50.125 28.6125 48.1982 29.0518 46.5107C29.1518 46.1018 29.0857 45.8339 29.2875 45.5643V45.8929C29.2875 45.8929 30.15 47.7875 30.5786 48.75C31.7441 50.5161 33.192 52.0786 34.8643 53.375C35.5258 53.9525 36.0587 54.6625 36.4286 55.4589V56.0714H37.1911C37.1752 55.7953 37.0986 55.526 36.9669 55.2828C36.8351 55.0396 36.6513 54.8284 36.4286 54.6643C35.8033 54.0207 35.2306 53.328 34.7161 52.5929C33.3183 50.6022 32.0856 48.5005 31.0304 46.3089C30.4947 45.2375 30.0429 44.0625 29.6143 42.9929C29.4179 42.5804 29.4179 41.9571 29.0875 41.7429C28.4775 42.4646 27.9482 43.2508 27.5089 44.0875C26.9757 45.7787 26.6654 47.5321 26.5857 49.3036C26.4554 49.3393 26.5197 49.3036 26.4554 49.3714C25.4036 49.0946 25.0411 47.9571 24.6447 46.9929C23.6206 44.0188 23.5173 40.8051 24.3482 37.7714C24.5768 37.0482 25.5679 34.7696 25.1714 34.0786C24.9732 33.4196 24.3143 33.0429 23.9536 32.5232C23.4931 31.8241 23.0968 31.0848 22.7697 30.3143C21.9857 28.3929 21.5893 26.25 20.7357 24.3143C20.2632 23.3833 19.7131 22.4939 19.0911 21.6554C18.4031 20.8177 17.7962 19.9167 17.2786 18.9643C17.1143 18.5839 16.8839 17.9625 17.1464 17.5482C17.1642 17.4331 17.2189 17.327 17.3023 17.2458C17.3858 17.1646 17.4934 17.1128 17.6089 17.0982C18.0339 16.7196 19.2536 17.2018 19.6804 17.4089C20.8274 17.8605 21.92 18.4397 22.9375 19.1357C23.3982 19.4821 24.4839 20.3589 24.4839 20.3589H24.8054C25.8982 20.5964 27.1268 20.425 28.1554 20.7339C29.8872 21.3112 31.5399 22.1031 33.075 23.0911C37.5994 25.9753 41.2776 30.0083 43.7339 34.7786C44.1447 35.5625 44.3179 36.2821 44.6929 37.1C45.4072 38.7786 46.3 40.4929 47.0143 42.125C47.6444 43.7398 48.4594 45.2762 49.4429 46.7036C49.9536 47.4179 52.0054 47.7964 52.9286 48.1714C53.7303 48.4488 54.5171 48.7677 55.2857 49.1268C56.4482 49.8411 57.6072 50.6643 58.7018 51.4482C59.2464 51.8589 60.9554 52.7125 61.0589 53.3964" fill="#00758F"/>
</svg>
