<svg width="80" height="105" viewBox="0 0 80 105" fill="none" xmlns="http://www.w3.org/2000/svg">
<path d="M0 5C0 2.23858 2.23858 0 5 0H75C77.7614 0 80 2.23858 80 5V80H0V5Z" fill="#1D1D1F"/>
<path d="M0 80H80V100C80 102.761 77.7614 105 75 105H5C2.23858 105 0 102.761 0 100V80Z" fill="#303133"/>
<path d="M30.0049 96.2414H28.2275L23.5449 89.0363C23.4264 88.854 23.3285 88.6649 23.251 88.4689H23.21C23.2464 88.6786 23.2646 89.1274 23.2646 89.8156V96.2414H21.6924V86.4386H23.5859L28.1113 93.4728C28.3027 93.7645 28.4258 93.965 28.4805 94.0744H28.5078C28.4622 93.8146 28.4395 93.3748 28.4395 92.7551V86.4386H30.0049V96.2414ZM38.6318 95.6808C38.6318 98.2511 37.3398 99.5363 34.7559 99.5363C33.8444 99.5363 33.0492 99.3836 32.3701 99.0783V97.6291C33.1357 98.0666 33.8626 98.2853 34.5508 98.2853C36.2142 98.2853 37.0459 97.4673 37.0459 95.8312V95.0656H37.0186C36.4945 95.9588 35.7061 96.4054 34.6533 96.4054C33.8011 96.4054 33.113 96.0955 32.5889 95.4758C32.0693 94.8514 31.8096 94.0151 31.8096 92.967C31.8096 91.7775 32.0898 90.8319 32.6504 90.1301C33.2109 89.4282 33.9811 89.0773 34.9609 89.0773C35.8861 89.0773 36.5719 89.4556 37.0186 90.2121H37.0459V89.2414H38.6318V95.6808ZM37.0596 93.0353V92.1261C37.0596 91.634 36.8955 91.2147 36.5674 90.8683C36.2438 90.5174 35.8382 90.342 35.3506 90.342C34.749 90.342 34.2773 90.5653 33.9355 91.0119C33.5983 91.4539 33.4297 92.0737 33.4297 92.8713C33.4297 93.5594 33.5915 94.1108 33.915 94.5256C34.2432 94.9357 34.6761 95.1408 35.2139 95.1408C35.7607 95.1408 36.2051 94.9448 36.5469 94.5529C36.8887 94.1564 37.0596 93.6506 37.0596 93.0353ZM41.4961 87.7717C41.2363 87.7717 41.013 87.6873 40.8262 87.5187C40.6439 87.3501 40.5527 87.1359 40.5527 86.8761C40.5527 86.6164 40.6439 86.3999 40.8262 86.2267C41.013 86.0536 41.2363 85.967 41.4961 85.967C41.765 85.967 41.9928 86.0536 42.1797 86.2267C42.3665 86.3999 42.46 86.6164 42.46 86.8761C42.46 87.1222 42.3665 87.3342 42.1797 87.5119C41.9928 87.6851 41.765 87.7717 41.4961 87.7717ZM42.2822 96.2414H40.6963V89.2414H42.2822V96.2414ZM50.5947 96.2414H49.0088V92.297C49.0088 90.9891 48.5462 90.3351 47.6211 90.3351C47.138 90.3351 46.7393 90.5174 46.4248 90.882C46.1104 91.242 45.9531 91.6978 45.9531 92.2492V96.2414H44.3604V89.2414H45.9531V90.4035H45.9805C46.5046 89.5194 47.2611 89.0773 48.25 89.0773C49.0111 89.0773 49.5921 89.3257 49.9932 89.8224C50.3942 90.3146 50.5947 91.0278 50.5947 91.9621V96.2414ZM58.3877 89.2414L56.0566 92.7824L58.3604 96.2414H56.5215L55.291 94.0744C55.2135 93.9422 55.1224 93.7736 55.0176 93.5685H54.9902C54.972 93.6095 54.8763 93.7782 54.7031 94.0744L53.4521 96.2414H51.6201L53.999 92.8097L51.7432 89.2414H53.5889L54.7988 91.5177C54.89 91.6864 54.9788 91.8595 55.0654 92.0373H55.0859L56.6514 89.2414H58.3877Z" fill="#E8E8E8"/>
<g clip-path="url(#clip0_2_43)">
<path d="M18.2156 40.0359V28.1031C18.2039 27.8931 18.2549 27.6843 18.362 27.5032C18.469 27.3221 18.6275 27.1769 18.8172 27.0859L39.4 15.1984C39.7703 14.9672 40.186 14.9203 40.5563 15.1516L61.2313 27.0844C61.4085 27.1863 61.5541 27.3353 61.6519 27.5148C61.7498 27.6943 61.7962 27.8974 61.7859 28.1016V51.9219C61.7962 52.1261 61.7498 52.3291 61.6519 52.5086C61.5541 52.6881 61.4085 52.8371 61.2313 52.9391L43.4703 63.2047C42.5398 63.7616 41.599 64.3013 40.6485 64.8234C40.2328 65.0547 39.8156 65.0547 39.3984 64.8234L18.7703 52.9359C18.4 52.7047 18.2156 52.4266 18.2156 51.9641V40.0313V40.0359Z" fill="#009438"/>
<path d="M32.7844 35.5938V49.5C32.7844 51.0719 31.5344 52.4594 29.8703 52.4141C28.8547 52.3672 28.0672 51.9516 27.5266 51.0734C27.2484 50.6578 27.1562 50.1953 27.1562 49.6859V30.3687C27.1562 29.0719 27.9422 28.15 28.9594 27.7328C29.9766 27.3156 30.9937 27.4094 32.0125 27.7328C32.9844 28.0109 33.7234 28.6109 34.3562 29.3516L46.6594 44.1062C46.7062 44.1531 46.7531 44.2469 46.8437 44.3375V30.275C46.8437 28.7953 47.8594 27.6391 49.2969 27.5C51.1 27.2688 52.3031 28.5625 52.4875 29.9063V49.5937C52.4875 50.6875 51.9781 51.4906 51.0531 52C50.3594 52.3703 49.6187 52.4625 48.8344 52.4156C47.6998 52.3401 46.624 51.8837 45.7812 51.1203C45.3187 50.7047 44.9953 50.1953 44.5781 49.7328L32.875 35.7172C32.875 35.6703 32.8281 35.6234 32.7812 35.5766L32.7844 35.5938Z" fill="#FEFEFE"/>
</g>
<defs>
<clipPath id="clip0_2_43">
<rect width="50" height="50" fill="white" transform="translate(15 15)"/>
</clipPath>
</defs>
</svg>
