<svg width="80" height="105" viewBox="0 0 80 105" fill="none" xmlns="http://www.w3.org/2000/svg">
<path d="M0 5C0 2.23858 2.23858 0 5 0H75C77.7614 0 80 2.23858 80 5V80H0V5Z" fill="#1D1D1F"/>
<path d="M0 80H80V100C80 102.761 77.7614 105 75 105H5C2.23858 105 0 102.761 0 100V80Z" fill="#303133"/>
<path d="M28.9932 92.6867V96.2414H27.373V86.4386H30.3467C31.4723 86.4386 32.3451 86.7007 32.9648 87.2248C33.5846 87.7489 33.8945 88.4871 33.8945 89.4396C33.8945 90.3921 33.571 91.1714 32.9238 91.7775C32.2767 92.3836 31.4017 92.6867 30.2988 92.6867H28.9932ZM28.9932 87.7785V91.3605H30.0459C30.7432 91.3605 31.2741 91.1987 31.6387 90.8752C32.0033 90.5516 32.1855 90.0959 32.1855 89.508C32.1855 88.355 31.5156 87.7785 30.1758 87.7785H28.9932ZM43.4375 96.2414H41.8037V91.9894H37.1895V96.2414H35.5625V86.4386H37.1895V90.5607H41.8037V86.4386H43.4375V96.2414ZM47.4775 92.6867V96.2414H45.8574V86.4386H48.8311C49.9567 86.4386 50.8294 86.7007 51.4492 87.2248C52.069 87.7489 52.3789 88.4871 52.3789 89.4396C52.3789 90.3921 52.0553 91.1714 51.4082 91.7775C50.7611 92.3836 49.8861 92.6867 48.7832 92.6867H47.4775ZM47.4775 87.7785V91.3605H48.5303C49.2275 91.3605 49.7585 91.1987 50.123 90.8752C50.4876 90.5516 50.6699 90.0959 50.6699 89.508C50.6699 88.355 50 87.7785 48.6602 87.7785H47.4775Z" fill="#E8E8E8"/>
<path d="M29.6042 36.2646H27.6375L26.5646 41.7812H28.3104C29.4687 41.7812 30.3312 41.5625 30.8979 41.1271C31.4646 40.6896 31.8458 39.9625 32.0437 38.9417C32.2354 37.9625 32.1479 37.2708 31.7854 36.8687C31.4208 36.4667 30.6958 36.2646 29.6042 36.2646V36.2646ZM40 26.85C26.1937 26.85 15 32.7375 15 40C15 47.2625 26.1937 53.1521 40 53.1521C53.8062 53.1521 65 47.2625 65 40C65 32.7375 53.8062 26.85 40 26.85ZM33.2083 42.3729C32.6646 42.8937 32.0104 43.2854 31.2979 43.5208C30.5979 43.7458 29.7042 43.8625 28.6208 43.8625H26.1604L25.4792 47.3646H22.6083L25.1708 34.1854H30.6917C32.3521 34.1854 33.5625 34.6208 34.325 35.4937C35.0875 36.3646 35.3167 37.5812 35.0125 39.1437C34.896 39.762 34.6815 40.3577 34.3771 40.9083C34.0792 41.4396 33.6896 41.9292 33.2083 42.3729ZM41.5917 43.8625L42.7229 38.0312C42.8542 37.3687 42.8042 36.9146 42.5812 36.675C42.3583 36.4333 41.8812 36.3125 41.15 36.3125H38.875L37.4083 43.8646H34.5583L37.1208 30.6833H39.9687L39.2875 34.1875H41.825C43.4229 34.1875 44.5229 34.4667 45.1292 35.0229C45.7354 35.5792 45.9167 36.4812 45.6771 37.7292L44.4854 43.8625H41.5917V43.8625ZM57.4187 39.1437C57.3041 39.7625 57.0895 40.3585 56.7833 40.9083C56.4854 41.4396 56.0958 41.9292 55.6146 42.3729C55.0705 42.8922 54.418 43.2842 53.7042 43.5208C53.0042 43.7458 52.1104 43.8625 51.025 43.8625H48.5667L47.8854 47.3667H45.0146L47.5771 34.1875H53.0958C54.7562 34.1875 55.9667 34.6229 56.7292 35.4958C57.4917 36.3646 57.7229 37.5812 57.4187 39.1437V39.1437ZM52.0125 36.2646H50.0479L48.9729 41.7812H50.7187C51.8792 41.7812 52.7417 41.5625 53.3062 41.1271C53.8729 40.6896 54.2542 39.9625 54.4542 38.9417C54.6458 37.9625 54.5562 37.2708 54.1937 36.8687C53.8312 36.4667 53.1021 36.2646 52.0125 36.2646V36.2646Z" fill="#8892BF"/>
</svg>
