<svg width="80" height="105" viewBox="0 0 80 105" fill="none" xmlns="http://www.w3.org/2000/svg">
<path d="M0 5C0 2.23858 2.23858 0 5 0H75C77.7614 0 80 2.23858 80 5V80H0V5Z" fill="#1D1D1F"/>
<path d="M0 80H80V100C80 102.761 77.7614 105 75 105H5C2.23858 105 0 102.761 0 100V80Z" fill="#303133"/>
<path d="M19.2783 92.6867V96.2414H17.6582V86.4386H20.6318C21.7575 86.4386 22.6302 86.7007 23.25 87.2248C23.8698 87.7489 24.1797 88.4871 24.1797 89.4396C24.1797 90.3921 23.8561 91.1714 23.209 91.7775C22.5618 92.3836 21.6868 92.6867 20.584 92.6867H19.2783ZM19.2783 87.7785V91.3605H20.3311C21.0283 91.3605 21.5592 91.1987 21.9238 90.8752C22.2884 90.5516 22.4707 90.0959 22.4707 89.508C22.4707 88.355 21.8008 87.7785 20.4609 87.7785H19.2783ZM31.7334 89.2414L28.5752 97.3625C27.9189 98.8117 26.9984 99.5363 25.8135 99.5363C25.4808 99.5363 25.2028 99.5067 24.9795 99.4474V98.1281C25.2301 98.2101 25.458 98.2511 25.6631 98.2511C26.2555 98.2511 26.6976 97.9595 26.9893 97.3761L27.4609 96.2277L24.6787 89.2414H26.4355L28.1035 94.3273C28.1217 94.3911 28.1628 94.5597 28.2266 94.8332H28.2607C28.2835 94.7284 28.3245 94.5643 28.3838 94.341L30.1338 89.2414H31.7334ZM36.5254 96.1662C36.2155 96.3211 35.8076 96.3986 35.3018 96.3986C33.9437 96.3986 33.2646 95.7469 33.2646 94.4435V90.4855H32.0957V89.2414H33.2646V87.6213L34.8506 87.1701V89.2414H36.5254V90.4855H34.8506V93.9855C34.8506 94.4002 34.9258 94.6965 35.0762 94.8742C35.2266 95.0519 35.4772 95.1408 35.8281 95.1408C36.097 95.1408 36.3294 95.0633 36.5254 94.9084V96.1662ZM44.1133 96.2414H42.5273V92.4133C42.5273 91.0278 42.0648 90.3351 41.1396 90.3351C40.6748 90.3351 40.2829 90.5356 39.9639 90.9367C39.6449 91.3377 39.4854 91.8504 39.4854 92.4748V96.2414H37.8926V85.8781H39.4854V90.4035H39.5127C40.0413 89.5194 40.7979 89.0773 41.7822 89.0773C43.3363 89.0773 44.1133 90.0275 44.1133 91.9279V96.2414ZM49.1445 96.4054C48.0645 96.4054 47.2008 96.0796 46.5537 95.4279C45.9111 94.7717 45.5898 93.9035 45.5898 92.8234C45.5898 91.6476 45.9248 90.7293 46.5947 90.0685C47.2692 89.4077 48.1761 89.0773 49.3154 89.0773C50.4092 89.0773 51.2614 89.3986 51.8721 90.0412C52.4827 90.6838 52.7881 91.5747 52.7881 92.714C52.7881 93.8306 52.4577 94.7261 51.7969 95.4006C51.1406 96.0705 50.2565 96.4054 49.1445 96.4054ZM49.2197 90.342C48.5999 90.342 48.11 90.5584 47.75 90.9914C47.39 91.4243 47.21 92.0213 47.21 92.7824C47.21 93.5161 47.3923 94.0949 47.7568 94.5187C48.1214 94.938 48.609 95.1476 49.2197 95.1476C49.8441 95.1476 50.3226 94.9403 50.6553 94.5256C50.9925 94.1108 51.1611 93.5207 51.1611 92.7551C51.1611 91.9849 50.9925 91.3901 50.6553 90.9709C50.3226 90.5516 49.8441 90.342 49.2197 90.342ZM60.6426 96.2414H59.0566V92.297C59.0566 90.9891 58.5941 90.3351 57.6689 90.3351C57.1859 90.3351 56.7871 90.5174 56.4727 90.882C56.1582 91.242 56.001 91.6978 56.001 92.2492V96.2414H54.4082V89.2414H56.001V90.4035H56.0283C56.5524 89.5194 57.3089 89.0773 58.2979 89.0773C59.0589 89.0773 59.64 89.3257 60.041 89.8224C60.4421 90.3146 60.6426 91.0278 60.6426 91.9621V96.2414Z" fill="#E8E8E8"/>
<path d="M35.76 21.2746C35.76 22.9845 34.3722 24.3723 32.6623 24.3723C30.9524 24.3723 29.5646 22.9845 29.5646 21.2746C29.5646 19.5647 30.9524 18.1769 32.6623 18.1769C34.3722 18.1769 35.76 19.5647 35.76 21.2746" fill="#F9F9F9"/>
<path d="M39.8737 15.1123C37.8334 15.1205 35.8798 15.2981 34.1616 15.5955C29.1041 16.4835 28.1831 18.3297 28.1831 21.7434V26.2536H40.138V27.7549H23.6976C20.22 27.7549 17.1801 29.82 16.2281 33.7479C15.1315 38.2499 15.0737 41.0646 16.2281 45.7586C17.0748 49.259 19.1007 51.7516 22.5763 51.7516H26.0932V45.7669C26.0932 41.87 29.513 38.4502 33.571 38.4502H46.0856C49.4084 38.4502 52.5556 35.7387 52.5556 32.4407V21.7681C52.5556 18.5652 49.3361 16.1531 46.0856 15.6203C44.037 15.2816 41.9079 15.1288 39.8696 15.1371M33.4078 18.7345C34.6428 18.7345 35.6505 19.7505 35.6505 21.002C35.6505 22.2452 34.6428 23.2447 33.4078 23.2447C32.1646 23.2447 31.1568 22.2452 31.1568 21.002C31.1568 19.7526 32.1564 18.7345 33.4078 18.7345Z" fill="#4586B9"/>
<path d="M50.2241 58.4467C50.2241 60.1566 48.8363 61.5444 47.1264 61.5444C45.4082 61.5444 44.0205 60.1566 44.0205 58.4467C44.0205 56.7368 45.4082 55.349 47.1264 55.349C48.8363 55.349 50.2241 56.7368 50.2241 58.4467Z" fill="#F9F9F9"/>
<path d="M54.2573 27.7508V33.0024C54.2573 37.0686 50.7652 40.0135 46.7877 40.0135H33.6701C30.4031 40.0135 27.6916 43.2722 27.6916 46.5083V57.7694C27.6916 60.9724 30.5063 62.8516 33.6701 63.7706C37.4534 64.8672 41.5754 65.0778 46.1021 63.7706C49.111 62.9074 52.0806 61.1727 52.0806 57.7694V53.2591H40.1422V51.7578H58.0674C61.5368 51.7578 62.8358 49.354 64.0459 45.7648C65.2953 42.0621 65.2313 38.4956 64.0459 33.7541C63.1827 30.326 61.5451 27.7611 58.0674 27.7611M46.8621 56.2701C48.097 56.2701 49.1048 57.2696 49.1048 58.5128C49.1048 59.756 48.1053 60.7803 46.8621 60.7803C45.6189 60.7803 44.6111 59.756 44.6111 58.5128C44.6111 57.2696 45.6189 56.2701 46.8621 56.2701Z" fill="#FFE634"/>
</svg>
