<svg width="80" height="105" viewBox="0 0 80 105" fill="none" xmlns="http://www.w3.org/2000/svg">
<path d="M0 5C0 2.23858 2.23858 0 5 0H75C77.7614 0 80 2.23858 80 5V80H0V5Z" fill="#1D1D1F"/>
<path d="M0 80H80V100C80 102.761 77.7614 105 75 105H5C2.23858 105 0 102.761 0 100V80Z" fill="#303133"/>
<path d="M26.2441 95.8517V94.1769C26.3945 94.3136 26.5723 94.4367 26.7773 94.5461C26.987 94.6554 27.208 94.7489 27.4404 94.8263C27.6729 94.8993 27.9053 94.9562 28.1377 94.9972C28.3701 95.0383 28.5843 95.0588 28.7803 95.0588C29.4639 95.0588 29.972 94.9448 30.3047 94.717C30.6419 94.4891 30.8105 94.1587 30.8105 93.7258C30.8105 93.4933 30.7536 93.2928 30.6396 93.1242C30.5303 92.951 30.3753 92.7938 30.1748 92.6525C29.9743 92.5112 29.7373 92.3768 29.4639 92.2492C29.195 92.117 28.9056 91.9803 28.5957 91.839C28.263 91.6613 27.9531 91.4813 27.666 91.299C27.3789 91.1167 27.1283 90.9162 26.9141 90.6974C26.7044 90.4741 26.5381 90.2235 26.415 89.9455C26.2965 89.6675 26.2373 89.3416 26.2373 88.9679C26.2373 88.5077 26.3398 88.1089 26.5449 87.7717C26.7546 87.4299 27.028 87.1496 27.3652 86.9308C27.707 86.7075 28.0944 86.5435 28.5273 86.4386C28.9603 86.3293 29.4023 86.2746 29.8535 86.2746C30.8789 86.2746 31.6263 86.3908 32.0957 86.6232V88.2297C31.5397 87.8286 30.8242 87.6281 29.9492 87.6281C29.7077 87.6281 29.4661 87.6509 29.2246 87.6965C28.9876 87.742 28.7734 87.8172 28.582 87.922C28.3952 88.0269 28.2425 88.1613 28.124 88.3254C28.0055 88.4894 27.9463 88.6877 27.9463 88.9201C27.9463 89.1388 27.9919 89.328 28.083 89.4875C28.1742 89.647 28.3063 89.7928 28.4795 89.925C28.6572 90.0571 28.8714 90.187 29.1221 90.3146C29.3773 90.4377 29.6712 90.5721 30.0039 90.7179C30.3457 90.8957 30.667 91.0825 30.9678 91.2785C31.2731 91.4745 31.5397 91.6909 31.7676 91.9279C32 92.1649 32.1823 92.4292 32.3145 92.7209C32.4512 93.008 32.5195 93.3361 32.5195 93.7052C32.5195 94.202 32.4193 94.6213 32.2188 94.9631C32.0182 95.3049 31.7471 95.5829 31.4053 95.797C31.068 96.0112 30.6784 96.1662 30.2363 96.2619C29.7943 96.3576 29.3271 96.4054 28.835 96.4054C28.6709 96.4054 28.4681 96.3918 28.2266 96.3644C27.9896 96.3416 27.7458 96.3052 27.4951 96.2551C27.2445 96.2095 27.0075 96.1525 26.7842 96.0842C26.5609 96.0158 26.3809 95.9383 26.2441 95.8517ZM39.5195 96.2414H37.9814V95.1476H37.9541C37.471 95.9862 36.7624 96.4054 35.8281 96.4054C35.14 96.4054 34.5999 96.2186 34.208 95.8449C33.8206 95.4712 33.627 94.9767 33.627 94.3615C33.627 93.0399 34.388 92.2697 35.9102 92.0509L37.9883 91.757C37.9883 90.759 37.5143 90.2599 36.5664 90.2599C35.7324 90.2599 34.9805 90.547 34.3105 91.1213V89.7336C35.0488 89.2961 35.901 89.0773 36.8672 89.0773C38.6354 89.0773 39.5195 89.9478 39.5195 91.6886V96.2414ZM37.9883 92.8029L36.5186 93.008C36.0628 93.0672 35.7188 93.1789 35.4863 93.3429C35.2585 93.5024 35.1445 93.785 35.1445 94.1906C35.1445 94.4868 35.2493 94.7306 35.459 94.922C35.6732 95.1089 35.958 95.2023 36.3135 95.2023C36.7965 95.2023 37.1953 95.0337 37.5098 94.6965C37.8288 94.3547 37.9883 93.9263 37.9883 93.4113V92.8029ZM41.0234 96.0226V94.5529C41.6159 95.0041 42.2699 95.2297 42.9854 95.2297C43.9424 95.2297 44.4209 94.9471 44.4209 94.382C44.4209 94.2225 44.3799 94.0881 44.2979 93.9787C44.2158 93.8648 44.1042 93.7645 43.9629 93.6779C43.8262 93.5913 43.6621 93.5138 43.4707 93.4455C43.2839 93.3771 43.0742 93.2996 42.8418 93.2131C42.5547 93.0991 42.2949 92.9784 42.0625 92.8508C41.8346 92.7231 41.6432 92.5796 41.4883 92.4201C41.3379 92.256 41.224 92.0715 41.1465 91.8664C41.069 91.6613 41.0303 91.422 41.0303 91.1486C41.0303 90.8114 41.11 90.5151 41.2695 90.2599C41.429 90.0002 41.6432 89.7837 41.9121 89.6105C42.181 89.4328 42.4863 89.3006 42.8281 89.214C43.1699 89.1229 43.5231 89.0773 43.8877 89.0773C44.5348 89.0773 45.1136 89.1753 45.624 89.3713V90.759C45.1318 90.4217 44.5667 90.2531 43.9287 90.2531C43.7282 90.2531 43.5459 90.2736 43.3818 90.3146C43.2223 90.3556 43.0856 90.4126 42.9717 90.4855C42.8577 90.5584 42.7689 90.6473 42.7051 90.7521C42.6413 90.8524 42.6094 90.964 42.6094 91.0871C42.6094 91.2375 42.6413 91.3651 42.7051 91.4699C42.7689 91.5747 42.8623 91.6681 42.9854 91.7502C43.113 91.8276 43.2633 91.9006 43.4365 91.9689C43.6143 92.0327 43.8171 92.1034 44.0449 92.1808C44.3457 92.3039 44.6146 92.4292 44.8516 92.5568C45.0931 92.6844 45.2982 92.8302 45.4668 92.9943C45.6354 93.1538 45.7653 93.3407 45.8564 93.5549C45.9476 93.7645 45.9932 94.0151 45.9932 94.3068C45.9932 94.6623 45.9111 94.9722 45.7471 95.2365C45.583 95.5008 45.3643 95.7196 45.0908 95.8927C44.8174 96.0659 44.5007 96.1935 44.1406 96.2756C43.7852 96.3621 43.4092 96.4054 43.0127 96.4054C42.2471 96.4054 41.584 96.2778 41.0234 96.0226ZM47.0664 96.0226V94.5529C47.6589 95.0041 48.3128 95.2297 49.0283 95.2297C49.9854 95.2297 50.4639 94.9471 50.4639 94.382C50.4639 94.2225 50.4229 94.0881 50.3408 93.9787C50.2588 93.8648 50.1471 93.7645 50.0059 93.6779C49.8691 93.5913 49.7051 93.5138 49.5137 93.4455C49.3268 93.3771 49.1172 93.2996 48.8848 93.2131C48.5977 93.0991 48.3379 92.9784 48.1055 92.8508C47.8776 92.7231 47.6862 92.5796 47.5312 92.4201C47.3809 92.256 47.2669 92.0715 47.1895 91.8664C47.112 91.6613 47.0732 91.422 47.0732 91.1486C47.0732 90.8114 47.153 90.5151 47.3125 90.2599C47.472 90.0002 47.6862 89.7837 47.9551 89.6105C48.224 89.4328 48.5293 89.3006 48.8711 89.214C49.2129 89.1229 49.5661 89.0773 49.9307 89.0773C50.5778 89.0773 51.1566 89.1753 51.667 89.3713V90.759C51.1748 90.4217 50.6097 90.2531 49.9717 90.2531C49.7712 90.2531 49.5889 90.2736 49.4248 90.3146C49.2653 90.3556 49.1286 90.4126 49.0146 90.4855C48.9007 90.5584 48.8118 90.6473 48.748 90.7521C48.6842 90.8524 48.6523 90.964 48.6523 91.0871C48.6523 91.2375 48.6842 91.3651 48.748 91.4699C48.8118 91.5747 48.9053 91.6681 49.0283 91.7502C49.1559 91.8276 49.3063 91.9006 49.4795 91.9689C49.6572 92.0327 49.86 92.1034 50.0879 92.1808C50.3887 92.3039 50.6576 92.4292 50.8945 92.5568C51.1361 92.6844 51.3411 92.8302 51.5098 92.9943C51.6784 93.1538 51.8083 93.3407 51.8994 93.5549C51.9906 93.7645 52.0361 94.0151 52.0361 94.3068C52.0361 94.6623 51.9541 94.9722 51.79 95.2365C51.626 95.5008 51.4072 95.7196 51.1338 95.8927C50.8604 96.0659 50.5436 96.1935 50.1836 96.2756C49.8281 96.3621 49.4521 96.4054 49.0557 96.4054C48.29 96.4054 47.627 96.2778 47.0664 96.0226Z" fill="#E8E8E8"/>
<g clip-path="url(#clip0_2_43)">
<path d="M56.569 42.6759C55.0529 42.6779 53.5572 43.0245 52.1948 43.6897C51.7683 42.9818 51.4389 42.2198 51.2155 41.4241C51.0872 40.8004 51.0575 40.1605 51.1276 39.5276C51.275 38.8312 51.4661 38.1447 51.7 37.4724C51.6914 37.3845 51.5948 36.969 50.6241 36.9552C49.6534 36.9414 48.8172 37.1397 48.7276 37.3966C48.559 37.8658 48.4236 38.3463 48.3224 38.8345C47.519 40.8164 46.5302 42.718 45.369 44.5138C44.7184 43.4473 44.4508 42.1908 44.6103 40.9517C44.7577 40.2553 44.9489 39.5689 45.1828 38.8966C45.1741 38.8086 45.0776 38.3931 44.1069 38.3793C43.1362 38.3655 42.3 38.5638 42.2103 38.8207C42.1207 39.0776 42.0069 39.6828 41.8052 40.2586C41.6034 40.8345 39.2483 46.0966 38.631 47.4534C38.3138 48.1431 38.0396 48.7052 37.8465 49.0845C37.8374 49.1091 37.8258 49.1328 37.8121 49.1552C37.6396 49.481 37.5483 49.6586 37.5483 49.6586V49.6672C37.4155 49.9052 37.2741 50.1259 37.2034 50.1259C37.0801 49.6333 37.0861 49.1172 37.2207 48.6276C37.5655 46.8017 38.4103 43.9638 38.4017 43.8655C38.4017 43.8121 38.5603 43.319 37.8552 43.0638C37.6916 42.986 37.508 42.9608 37.3295 42.9916C37.151 43.0225 36.9865 43.108 36.8586 43.2362C36.7965 43.2362 36.7534 43.3862 36.7534 43.3862C36.7534 43.3862 37.5207 40.1948 35.2896 40.1948C34.4208 40.3696 33.5958 40.7163 32.8629 41.2147C32.1301 41.713 31.5043 42.3528 31.0224 43.0966C30.4224 43.4224 29.1448 44.119 27.7776 44.869C27.2603 45.1603 26.719 45.4517 26.2172 45.731C26.1827 45.6966 26.1465 45.6517 26.1121 45.6172C23.3965 42.7241 18.4052 40.6828 18.6207 36.8121C18.7 35.4017 19.1845 31.6983 28.2052 27.2C35.6293 23.5414 41.5379 24.5552 42.5603 26.8034C44.0241 30.0138 39.3948 35.9741 31.7241 36.8379C30.8755 37.0101 29.9991 36.9893 29.1596 36.7771C28.3201 36.5649 27.539 36.1668 26.8741 35.6121C26.469 35.1707 26.4069 35.1448 26.2569 35.2328C26.0103 35.3655 26.169 35.7621 26.2569 35.9914C26.5495 36.5209 26.9453 36.9865 27.4209 37.3605C27.8965 37.7345 28.4422 38.0094 29.0259 38.169C32.0435 38.8211 35.1897 38.5093 38.0207 37.2776C42.6759 35.4793 46.2965 30.4793 45.2345 26.2914C44.1672 22.0414 37.1138 20.6397 30.4379 23.0155C26.2565 24.4225 22.3928 26.6388 19.0672 29.5379C15.3896 32.9776 14.8086 35.9655 15.0465 37.219C15.9086 41.6638 22.031 44.5552 24.481 46.7017C24.3569 46.7724 24.2431 46.8345 24.1465 46.8862C22.9207 47.4948 18.2483 49.9379 17.0776 52.5207C15.7552 55.4517 17.2896 57.5466 18.3034 57.8293C19.831 58.195 21.4347 58.0745 22.8905 57.4848C24.3464 56.895 25.5817 55.8654 26.4241 54.5397C27.1415 53.44 27.5824 52.1833 27.7094 50.8765C27.8364 49.5698 27.6457 48.2517 27.1534 47.0345C27.1451 47.0148 27.1335 46.9967 27.119 46.981L28.0793 46.4172C28.7052 46.0466 29.3224 45.7034 29.8517 45.4207C29.4928 46.4559 29.2821 47.5368 29.2259 48.631C29.104 50.3082 29.6173 51.9699 30.6638 53.2862C30.823 53.4233 31.0079 53.5274 31.2077 53.5925C31.4074 53.6576 31.6181 53.6824 31.8276 53.6655C32.8621 53.6655 33.3362 52.8034 33.8552 51.7793C34.4896 50.5276 35.0621 49.0724 35.0621 49.0724C35.0621 49.0724 34.3483 53.0052 36.2879 53.0052C36.9931 53.0052 37.7069 52.0879 38.0259 51.6259V51.6345C38.0259 51.6345 38.0431 51.6086 38.0793 51.5465L38.1931 51.3621V51.3448C38.4759 50.8517 39.1103 49.731 40.0534 47.8707C41.2707 45.4724 42.4431 42.4741 42.4431 42.4741C42.5562 43.1331 42.7123 43.7839 42.9103 44.4224C43.1943 45.1964 43.5301 45.9504 43.9155 46.6793C43.6328 47.0759 43.4569 47.2966 43.4569 47.2966L43.4655 47.3052C43.2362 47.6052 42.9896 47.931 42.7155 48.2483C41.8999 49.145 41.1431 50.0935 40.45 51.0879C40.347 51.255 40.3116 51.455 40.351 51.6472C40.3904 51.8394 40.5017 52.0094 40.6621 52.1224C41.025 52.3113 41.4387 52.3795 41.8431 52.3172C42.4525 52.2828 43.0517 52.1459 43.6155 51.9121C44.1604 51.7203 44.6744 51.4503 45.1414 51.1103C45.6228 50.7768 46.0103 50.325 46.2667 49.7984C46.523 49.2718 46.6396 48.6881 46.6052 48.1034C46.5509 47.367 46.3628 46.6465 46.05 45.9776C46.1379 45.8534 46.2224 45.731 46.3052 45.6069C47.2854 44.1438 48.1689 42.6181 48.95 41.0397C49.0631 41.6986 49.2192 42.3494 49.4172 42.9879C49.6515 43.6568 49.9398 44.3055 50.2793 44.9276C49.1516 45.7952 48.2634 46.9356 47.6983 48.2414C47.1431 49.8465 47.5741 50.569 48.3879 50.7362C48.8332 50.7669 49.2785 50.6757 49.6759 50.4724C50.2601 50.2804 50.8105 49.9976 51.3069 49.6345C51.8303 49.3256 52.2686 48.8915 52.5825 48.3711C52.8964 47.8507 53.076 47.2605 53.1052 46.6534C53.066 46.0475 52.9292 45.4519 52.7 44.8897C54.1881 44.3083 55.8016 44.1229 57.3828 44.3517C61.5793 44.8448 62.4086 47.4638 62.25 48.5672C62.1756 48.9584 62.0183 49.3291 61.7887 49.6545C61.5592 49.9798 61.2626 50.2523 60.919 50.4534C60.6276 50.6379 60.531 50.7 60.5569 50.8328C60.5914 51.0276 60.7293 51.0172 60.9793 50.9828C61.6118 50.7862 62.1698 50.4025 62.5798 49.8823C62.9898 49.3621 63.2325 48.7299 63.2759 48.069C63.4086 45.4828 60.9397 42.6466 56.5741 42.6724L56.569 42.6759ZM24.1896 53.5862C22.7965 55.1034 20.8569 55.6759 20.019 55.1914C19.119 54.6741 19.4724 52.4328 21.1828 50.8259C22.1973 49.9126 23.2939 49.0947 24.4586 48.3828C24.6621 48.2586 24.9621 48.0828 25.3207 47.8655L25.4172 47.8121L25.6293 47.6793C25.9349 48.7031 25.9626 49.7897 25.7096 50.8278C25.4566 51.8658 24.932 52.8178 24.1896 53.5862V53.5862ZM34.3293 46.6897C33.8448 47.8707 32.831 50.8966 32.2138 50.7276C31.6845 50.5862 31.3517 48.2931 32.1086 46.0276C32.4908 44.937 33.0474 43.9157 33.7569 43.0034C34.5155 42.1569 35.3534 41.8741 35.5552 42.219C35.3711 43.7619 34.958 45.2687 34.3293 46.6897V46.6897ZM42.6965 50.6931C42.4931 50.7983 42.3 50.8655 42.2121 50.8172C42.15 50.7828 42.3 50.6448 42.3 50.6448C42.3 50.6448 43.35 49.5155 43.7638 49.0052C44.0017 48.7052 44.281 48.3534 44.5845 47.9552V48.069C44.5845 49.4172 43.2793 50.3259 42.6983 50.6966L42.6965 50.6931ZM49.1517 49.2207C49.0017 49.1155 49.0276 48.7621 49.531 47.6603C49.8811 46.9528 50.3701 46.323 50.969 45.8086C51.0608 46.0696 51.1085 46.344 51.1103 46.6207C51.1171 47.2095 50.9288 47.7841 50.5749 48.2547C50.2209 48.7254 49.7211 49.0656 49.1534 49.2224L49.1517 49.2207Z" fill="#CD6799"/>
</g>
<defs>
<clipPath id="clip0_2_43">
<rect width="50" height="37.931" fill="white" transform="translate(15 21)"/>
</clipPath>
</defs>
</svg>
