<svg width="80" height="105" viewBox="0 0 80 105" fill="none" xmlns="http://www.w3.org/2000/svg">
<path d="M0 5C0 2.23858 2.23858 0 5 0H75C77.7614 0 80 2.23858 80 5V80H0V5Z" fill="#1D1D1F"/>
<path d="M0 80H80V100C80 102.761 77.7614 105 75 105H5C2.23858 105 0 102.761 0 100V80Z" fill="#303133"/>
<path d="M27.0303 95.8517V94.1769C27.1807 94.3136 27.3584 94.4367 27.5635 94.5461C27.7731 94.6554 27.9941 94.7489 28.2266 94.8263C28.459 94.8993 28.6914 94.9562 28.9238 94.9972C29.1562 95.0383 29.3704 95.0588 29.5664 95.0588C30.25 95.0588 30.7581 94.9448 31.0908 94.717C31.4281 94.4891 31.5967 94.1587 31.5967 93.7258C31.5967 93.4933 31.5397 93.2928 31.4258 93.1242C31.3164 92.951 31.1615 92.7938 30.9609 92.6525C30.7604 92.5112 30.5234 92.3768 30.25 92.2492C29.9811 92.117 29.6917 91.9803 29.3818 91.839C29.0492 91.6613 28.7393 91.4813 28.4521 91.299C28.165 91.1167 27.9144 90.9162 27.7002 90.6974C27.4906 90.4741 27.3242 90.2235 27.2012 89.9455C27.0827 89.6675 27.0234 89.3416 27.0234 88.9679C27.0234 88.5077 27.126 88.1089 27.3311 87.7717C27.5407 87.4299 27.8141 87.1496 28.1514 86.9308C28.4932 86.7075 28.8805 86.5435 29.3135 86.4386C29.7464 86.3293 30.1885 86.2746 30.6396 86.2746C31.665 86.2746 32.4124 86.3908 32.8818 86.6232V88.2297C32.3258 87.8286 31.6104 87.6281 30.7354 87.6281C30.4938 87.6281 30.2523 87.6509 30.0107 87.6965C29.7738 87.742 29.5596 87.8172 29.3682 87.922C29.1813 88.0269 29.0286 88.1613 28.9102 88.3254C28.7917 88.4894 28.7324 88.6877 28.7324 88.9201C28.7324 89.1388 28.778 89.328 28.8691 89.4875C28.9603 89.647 29.0924 89.7928 29.2656 89.925C29.4434 90.0571 29.6576 90.187 29.9082 90.3146C30.1634 90.4377 30.4574 90.5721 30.79 90.7179C31.1318 90.8957 31.4531 91.0825 31.7539 91.2785C32.0592 91.4745 32.3258 91.6909 32.5537 91.9279C32.7861 92.1649 32.9684 92.4292 33.1006 92.7209C33.2373 93.008 33.3057 93.3361 33.3057 93.7052C33.3057 94.202 33.2054 94.6213 33.0049 94.9631C32.8044 95.3049 32.5332 95.5829 32.1914 95.797C31.8542 96.0112 31.4645 96.1662 31.0225 96.2619C30.5804 96.3576 30.1133 96.4054 29.6211 96.4054C29.457 96.4054 29.2542 96.3918 29.0127 96.3644C28.7757 96.3416 28.5319 96.3052 28.2812 96.2551C28.0306 96.2095 27.7936 96.1525 27.5703 96.0842C27.347 96.0158 27.167 95.9383 27.0303 95.8517ZM40.6133 96.2414H35.1104V86.4386H40.3945V87.8195H36.7373V90.5949H40.1074V91.9689H36.7373V94.8674H40.6133V96.2414ZM46.3965 96.4054C44.9837 96.4054 43.8512 95.9474 42.999 95.0314C42.1514 94.1154 41.7275 92.9237 41.7275 91.4562C41.7275 89.8794 42.1605 88.6216 43.0264 87.6828C43.8923 86.744 45.068 86.2746 46.5537 86.2746C47.93 86.2746 49.0374 86.7303 49.876 87.6418C50.7191 88.5532 51.1406 89.745 51.1406 91.217C51.1406 92.8166 50.71 94.0812 49.8486 95.0109C48.9873 95.9406 47.8366 96.4054 46.3965 96.4054ZM46.4717 87.7033C45.5739 87.7033 44.8424 88.0383 44.2773 88.7082C43.7168 89.3781 43.4365 90.2599 43.4365 91.3537C43.4365 92.4429 43.71 93.3202 44.2568 93.9855C44.8037 94.6509 45.5192 94.9836 46.4033 94.9836C47.3421 94.9836 48.0827 94.6668 48.625 94.0334C49.1673 93.3999 49.4385 92.5135 49.4385 91.3742C49.4385 90.203 49.1742 89.2983 48.6455 88.6603C48.1214 88.0223 47.3968 87.7033 46.4717 87.7033Z" fill="#E8E8E8"/>
<g clip-path="url(#clip0_2_43)">
<path d="M18.5 45.68C17.92 45.68 17.36 45.52 16.86 45.22L15 44.1V61.35H21.75V43.81L20.65 44.83C20.07 45.38 19.3 45.68 18.5 45.68Z" fill="#1991AD"/>
<path d="M28.72 37.34V61.36H35.48V36.65L32.01 34.28L28.72 37.34Z" fill="#1991AD"/>
<path d="M43.42 41.41C42.78 41.41 42.16 41.22 41.63 40.86L40.3 39.95V61.35H47.05V39.28L45.5 40.64C44.92 41.14 44.18 41.41 43.42 41.41Z" fill="#1991AD"/>
<path d="M52.25 61.36H59V28.9L52.25 34.77V61.36Z" fill="#1991AD"/>
<path d="M54.51 21.03L57.3 23.74L43.28 35.85L32.77 28.67C32.04 28.17 31.05 28.24 30.4 28.85L18.24 40.15L15.01 38.19V42.63L17.52 44.14C18.25 44.58 19.17 44.48 19.8 43.9L31.89 32.66L42.35 39.81C43.06 40.3 44.02 40.24 44.67 39.68L60.04 26.39L62.34 28.62L65 18.04L54.51 21.03Z" fill="#FF7714"/>
</g>
<defs>
<clipPath id="clip0_2_43">
<rect width="50" height="43.4" fill="white" transform="translate(15 18)"/>
</clipPath>
</defs>
</svg>
