<?xml version="1.0" encoding="iso-8859-1"?>
<!-- Generator: Adobe Illustrator 16.0.0, SVG Export Plug-In . SVG Version: 6.00 Build 0)  -->
<!DOCTYPE svg PUBLIC "-//W3C//DTD SVG 1.1//EN" "http://www.w3.org/Graphics/SVG/1.1/DTD/svg11.dtd">
<svg version="1.1" id="Capa_1" xmlns="http://www.w3.org/2000/svg" xmlns:xlink="http://www.w3.org/1999/xlink" x="0px" y="0px"
	 width="477.909px" height="477.909px" viewBox="0 0 477.909 477.909" style="enable-background:new 0 0 477.909 477.909;"
	 xml:space="preserve">
<g>
	<g>
		<g>
			<path d="M238.954,477.909C107.195,477.909,0,370.716,0,238.955C0,107.196,107.195,0,238.954,0
				c131.761,0,238.955,107.196,238.955,238.955C477.909,370.716,370.715,477.909,238.954,477.909z M238.954,28.675
				c-115.951,0-210.28,94.329-210.28,210.28c0,115.949,94.329,210.28,210.28,210.28c115.949,0,210.28-94.331,210.28-210.28
				C449.234,123.004,354.903,28.675,238.954,28.675z"/>
		</g>
		<g>
			<path d="M375.858,156.43l-34.882-30.423l-34.892-30.424l-34.886,30.424l-34.889,30.423h38.179
				c-12.849,78.96-85.811,140.397-168.843,127.329c-3.652-0.569-5.131,4.346-1.538,5.596
				c103.322,35.951,222.363-23.125,239.58-132.92L375.858,156.43L375.858,156.43z"/>
			<path d="M298.482,258.454c-10.729,9.913-22.724,18.557-35.717,25.781v98.093h35.717V258.454z"/>
			<path d="M209.19,382.328h35.719V292.99c-11.35,4.835-23.298,8.657-35.719,11.309V382.328z"/>
			<path d="M316.335,382.328h35.722V165.362h-0.905c-5.602,27.689-17.768,52.757-34.808,73.929v143.037H316.335z"/>
			<path d="M137.763,306.684c-12.13-1.773-24.073-4.62-35.715-8.615v84.26h35.715V306.684z"/>
			<path d="M155.621,382.328h35.715V307.31c-8.121,0.979-16.397,1.498-24.808,1.498c-3.647,0-7.285-0.136-10.907-0.332V382.328z"/>
		</g>
	</g>
</g>
<g>
</g>
<g>
</g>
<g>
</g>
<g>
</g>
<g>
</g>
<g>
</g>
<g>
</g>
<g>
</g>
<g>
</g>
<g>
</g>
<g>
</g>
<g>
</g>
<g>
</g>
<g>
</g>
<g>
</g>
</svg>
