<svg width="80" height="105" viewBox="0 0 80 105" fill="none" xmlns="http://www.w3.org/2000/svg">
<path d="M0 5C0 2.23858 2.23858 0 5 0H75C77.7614 0 80 2.23858 80 5V80H0V5Z" fill="#1D1D1F"/>
<path d="M0 80H80V100C80 102.761 77.7614 105 75 105H5C2.23858 105 0 102.761 0 100V80Z" fill="#303133"/>
<path d="M12.1074 95.8517V94.1769C12.2578 94.3136 12.4355 94.4367 12.6406 94.5461C12.8503 94.6554 13.0713 94.7489 13.3037 94.8263C13.5361 94.8993 13.7686 94.9562 14.001 94.9972C14.2334 95.0383 14.4476 95.0588 14.6436 95.0588C15.3271 95.0588 15.8353 94.9448 16.168 94.717C16.5052 94.4891 16.6738 94.1587 16.6738 93.7258C16.6738 93.4933 16.6169 93.2928 16.5029 93.1242C16.3936 92.951 16.2386 92.7938 16.0381 92.6525C15.8376 92.5112 15.6006 92.3768 15.3271 92.2492C15.0583 92.117 14.7689 91.9803 14.459 91.839C14.1263 91.6613 13.8164 91.4813 13.5293 91.299C13.2422 91.1167 12.9915 90.9162 12.7773 90.6974C12.5677 90.4741 12.4014 90.2235 12.2783 89.9455C12.1598 89.6675 12.1006 89.3416 12.1006 88.9679C12.1006 88.5077 12.2031 88.1089 12.4082 87.7717C12.6178 87.4299 12.8913 87.1496 13.2285 86.9308C13.5703 86.7075 13.9577 86.5435 14.3906 86.4386C14.8236 86.3293 15.2656 86.2746 15.7168 86.2746C16.7422 86.2746 17.4896 86.3908 17.959 86.6232V88.2297C17.403 87.8286 16.6875 87.6281 15.8125 87.6281C15.571 87.6281 15.3294 87.6509 15.0879 87.6965C14.8509 87.742 14.6367 87.8172 14.4453 87.922C14.2585 88.0269 14.1058 88.1613 13.9873 88.3254C13.8688 88.4894 13.8096 88.6877 13.8096 88.9201C13.8096 89.1388 13.8551 89.328 13.9463 89.4875C14.0374 89.647 14.1696 89.7928 14.3428 89.925C14.5205 90.0571 14.7347 90.187 14.9854 90.3146C15.2406 90.4377 15.5345 90.5721 15.8672 90.7179C16.209 90.8957 16.5303 91.0825 16.8311 91.2785C17.1364 91.4745 17.403 91.6909 17.6309 91.9279C17.8633 92.1649 18.0456 92.4292 18.1777 92.7209C18.3145 93.008 18.3828 93.3361 18.3828 93.7052C18.3828 94.202 18.2826 94.6213 18.082 94.9631C17.8815 95.3049 17.6104 95.5829 17.2686 95.797C16.9313 96.0112 16.5417 96.1662 16.0996 96.2619C15.6576 96.3576 15.1904 96.4054 14.6982 96.4054C14.5342 96.4054 14.3314 96.3918 14.0898 96.3644C13.8529 96.3416 13.609 96.3052 13.3584 96.2551C13.1077 96.2095 12.8708 96.1525 12.6475 96.0842C12.4242 96.0158 12.2441 95.9383 12.1074 95.8517ZM25.7314 89.2414L22.5732 97.3625C21.917 98.8117 20.9964 99.5363 19.8115 99.5363C19.4788 99.5363 19.2008 99.5067 18.9775 99.4474V98.1281C19.2282 98.2101 19.4561 98.2511 19.6611 98.2511C20.2536 98.2511 20.6956 97.9595 20.9873 97.3761L21.459 96.2277L18.6768 89.2414H20.4336L22.1016 94.3273C22.1198 94.3911 22.1608 94.5597 22.2246 94.8332H22.2588C22.2816 94.7284 22.3226 94.5643 22.3818 94.341L24.1318 89.2414H25.7314ZM37.2568 96.2414H35.6709V92.4269C35.6709 91.6932 35.5661 91.1623 35.3564 90.8342C35.1514 90.506 34.8027 90.342 34.3105 90.342C33.8958 90.342 33.5426 90.5493 33.251 90.964C32.9639 91.3787 32.8203 91.8755 32.8203 92.4543V96.2414H31.2275V92.297C31.2275 90.9937 30.7673 90.342 29.8467 90.342C29.4183 90.342 29.0651 90.5379 28.7871 90.9299C28.5137 91.3218 28.377 91.8299 28.377 92.4543V96.2414H26.791V89.2414H28.377V90.3488H28.4043C28.9102 89.5011 29.6462 89.0773 30.6123 89.0773C31.0954 89.0773 31.5169 89.2118 31.877 89.4806C32.2415 89.745 32.4899 90.0936 32.6221 90.5265C33.1416 89.5604 33.9163 89.0773 34.9463 89.0773C36.4867 89.0773 37.2568 90.0275 37.2568 91.9279V96.2414ZM43.1494 87.1701C42.9352 87.047 42.6914 86.9855 42.418 86.9855C41.6478 86.9855 41.2627 87.4207 41.2627 88.2912V89.2414H42.8896V90.4855H41.2695V96.2414H39.6836V90.4855H38.4873V89.2414H39.6836V88.1066C39.6836 87.3683 39.9251 86.7873 40.4082 86.3634C40.8913 85.9351 41.4951 85.7209 42.2197 85.7209C42.6117 85.7209 42.9215 85.7642 43.1494 85.8508V87.1701ZM47.1211 96.4054C46.041 96.4054 45.1774 96.0796 44.5303 95.4279C43.8877 94.7717 43.5664 93.9035 43.5664 92.8234C43.5664 91.6476 43.9014 90.7293 44.5713 90.0685C45.2458 89.4077 46.1527 89.0773 47.292 89.0773C48.3857 89.0773 49.238 89.3986 49.8486 90.0412C50.4593 90.6838 50.7646 91.5747 50.7646 92.714C50.7646 93.8306 50.4342 94.7261 49.7734 95.4006C49.1172 96.0705 48.2331 96.4054 47.1211 96.4054ZM47.1963 90.342C46.5765 90.342 46.0866 90.5584 45.7266 90.9914C45.3665 91.4243 45.1865 92.0213 45.1865 92.7824C45.1865 93.5161 45.3688 94.0949 45.7334 94.5187C46.098 94.938 46.5856 95.1476 47.1963 95.1476C47.8206 95.1476 48.2992 94.9403 48.6318 94.5256C48.9691 94.1108 49.1377 93.5207 49.1377 92.7551C49.1377 91.9849 48.9691 91.3901 48.6318 90.9709C48.2992 90.5516 47.8206 90.342 47.1963 90.342ZM58.6191 96.2414H57.0332V92.297C57.0332 90.9891 56.5706 90.3351 55.6455 90.3351C55.1624 90.3351 54.7637 90.5174 54.4492 90.882C54.1348 91.242 53.9775 91.6978 53.9775 92.2492V96.2414H52.3848V89.2414H53.9775V90.4035H54.0049C54.529 89.5194 55.2855 89.0773 56.2744 89.0773C57.0355 89.0773 57.6165 89.3257 58.0176 89.8224C58.4186 90.3146 58.6191 91.0278 58.6191 91.9621V96.2414ZM66.624 89.2414L63.4658 97.3625C62.8096 98.8117 61.889 99.5363 60.7041 99.5363C60.3714 99.5363 60.0934 99.5067 59.8701 99.4474V98.1281C60.1208 98.2101 60.3486 98.2511 60.5537 98.2511C61.1462 98.2511 61.5882 97.9595 61.8799 97.3761L62.3516 96.2277L59.5693 89.2414H61.3262L62.9941 94.3273C63.0124 94.3911 63.0534 94.5597 63.1172 94.8332H63.1514C63.1742 94.7284 63.2152 94.5643 63.2744 94.341L65.0244 89.2414H66.624Z" fill="#E8E8E8"/>
<path d="M57.09 15.0061C53.3344 15.1367 50.0589 17.2071 47.6194 20.0679C44.9154 23.2062 43.1193 26.9291 41.8261 30.7304C39.5107 28.833 37.7244 26.3772 34.008 25.3028C31.1342 24.4766 28.12 24.8162 25.3441 26.8834C24.028 27.8664 23.1234 29.349 22.6956 30.7435C21.5788 34.3684 23.8647 37.5949 24.9065 38.7542L27.1762 41.1839C27.6432 41.6607 28.7698 42.9049 28.2212 44.6913C27.6268 46.6344 25.2853 47.8884 22.8883 47.1503C21.8172 46.8173 20.2757 46.0204 20.6219 44.9003C20.7623 44.4398 21.0922 44.0936 21.2718 43.6985C21.4318 43.3556 21.5102 43.1009 21.5592 42.9507C21.9968 41.517 21.3991 39.6556 19.8675 39.182C18.4372 38.7444 16.9741 39.0906 16.4059 40.9325C15.7625 43.0258 16.7618 46.8205 22.1241 48.4762C28.4073 50.4062 33.7206 46.9838 34.475 42.5261C34.9518 39.7339 33.688 37.6537 31.3759 34.9856L29.4948 32.9054C28.3518 31.7624 27.9632 29.8225 29.1421 28.3301C30.1381 27.0696 31.5587 26.534 33.8806 27.1643C37.2737 28.0819 38.7857 30.4398 41.3068 32.3371C40.2651 35.753 39.5858 39.182 38.9686 42.2616L38.5898 44.5541C36.7838 54.0148 35.409 59.2073 31.8298 62.1922C31.108 62.7049 30.0793 63.4723 28.5249 63.5278C27.7117 63.5541 27.4472 62.9923 27.4341 62.7473C27.4179 62.1758 27.8979 61.9146 28.2179 61.6566C28.6947 61.3953 29.4197 60.961 29.3707 59.5796C29.3184 57.9402 27.9599 56.5196 26.0005 56.5882C24.5309 56.6372 22.2939 58.0186 22.3788 60.5495C22.467 63.1621 24.8999 65.1215 28.5739 64.9941C30.5365 64.9288 34.9224 64.1287 39.2429 58.995C44.2721 53.107 45.6763 46.3568 46.7377 41.4158L47.9166 34.8942C48.573 34.9725 49.2751 35.0248 50.0393 35.0444C56.2997 35.1783 59.4315 31.9322 59.4804 29.5743C59.51 28.1472 58.5432 26.7397 57.1879 26.7724C56.218 26.8019 54.9999 27.4451 54.7093 28.7873C54.4251 30.1034 56.7013 31.2921 54.9183 32.4449C53.6544 33.2646 51.3848 33.8426 48.1909 33.3723L48.7722 30.1622C49.9577 24.0749 51.4207 16.5866 56.9658 16.407C57.3708 16.3874 58.8502 16.4233 58.8828 17.4031C58.8928 17.7296 58.8142 17.8146 58.4289 18.5624C58.037 19.1437 57.8933 19.6401 57.9096 20.2116C57.9651 21.766 59.1473 22.7882 60.8553 22.7262C63.1445 22.651 63.801 20.4238 63.765 19.2776C63.6703 16.5866 60.8324 14.8852 57.0834 15.006L57.09 15.0061Z" fill="white"/>
</svg>
