<svg width="80" height="105" viewBox="0 0 80 105" fill="none" xmlns="http://www.w3.org/2000/svg">
<path d="M0 5C0 2.23858 2.23858 0 5 0H75C77.7614 0 80 2.23858 80 5V80H0V5Z" fill="#1D1D1F"/>
<path d="M0 80H80V100C80 102.761 77.7614 105 75 105H5C2.23858 105 0 102.761 0 100V80Z" fill="#303133"/>
<path d="M20.5566 87.8195H17.7402V96.2414H16.1133V87.8195H13.3037V86.4386H20.5566V87.8195ZM25.834 96.2414H24.2959V95.1476H24.2686C23.7855 95.9862 23.0768 96.4054 22.1426 96.4054C21.4544 96.4054 20.9144 96.2186 20.5225 95.8449C20.1351 95.4712 19.9414 94.9767 19.9414 94.3615C19.9414 93.0399 20.7025 92.2697 22.2246 92.0509L24.3027 91.757C24.3027 90.759 23.8288 90.2599 22.8809 90.2599C22.0469 90.2599 21.2949 90.547 20.625 91.1213V89.7336C21.3633 89.2961 22.2155 89.0773 23.1816 89.0773C24.9499 89.0773 25.834 89.9478 25.834 91.6886V96.2414ZM24.3027 92.8029L22.833 93.008C22.3773 93.0672 22.0332 93.1789 21.8008 93.3429C21.5729 93.5024 21.459 93.785 21.459 94.1906C21.459 94.4868 21.5638 94.7306 21.7734 94.922C21.9876 95.1089 22.2725 95.2023 22.6279 95.2023C23.111 95.2023 23.5098 95.0337 23.8242 94.6965C24.1432 94.3547 24.3027 93.9263 24.3027 93.4113V92.8029ZM28.5752 87.7717C28.3154 87.7717 28.0921 87.6873 27.9053 87.5187C27.723 87.3501 27.6318 87.1359 27.6318 86.8761C27.6318 86.6164 27.723 86.3999 27.9053 86.2267C28.0921 86.0536 28.3154 85.967 28.5752 85.967C28.8441 85.967 29.0719 86.0536 29.2588 86.2267C29.4456 86.3999 29.5391 86.6164 29.5391 86.8761C29.5391 87.1222 29.4456 87.3342 29.2588 87.5119C29.0719 87.6851 28.8441 87.7717 28.5752 87.7717ZM29.3613 96.2414H27.7754V89.2414H29.3613V96.2414ZM33.0322 96.2414H31.4395V85.8781H33.0322V96.2414ZM44.5166 89.2414L42.4521 96.2414H40.791L39.5195 91.4972C39.4694 91.3149 39.4375 91.1099 39.4238 90.882H39.3965C39.3874 91.037 39.3464 91.2375 39.2734 91.4836L37.8926 96.2414H36.2656L34.208 89.2414H35.8486L37.1201 94.2863C37.1611 94.4367 37.1885 94.6372 37.2021 94.8879H37.25C37.2637 94.6965 37.3001 94.4914 37.3594 94.2726L38.7744 89.2414H40.2646L41.5225 94.3068C41.5635 94.4663 41.5931 94.6668 41.6113 94.9084H41.6592C41.6683 94.7398 41.7025 94.5392 41.7617 94.3068L43.0059 89.2414H44.5166ZM46.499 87.7717C46.2393 87.7717 46.016 87.6873 45.8291 87.5187C45.6468 87.3501 45.5557 87.1359 45.5557 86.8761C45.5557 86.6164 45.6468 86.3999 45.8291 86.2267C46.016 86.0536 46.2393 85.967 46.499 85.967C46.7679 85.967 46.9958 86.0536 47.1826 86.2267C47.3695 86.3999 47.4629 86.6164 47.4629 86.8761C47.4629 87.1222 47.3695 87.3342 47.1826 87.5119C46.9958 87.6851 46.7679 87.7717 46.499 87.7717ZM47.2852 96.2414H45.6992V89.2414H47.2852V96.2414ZM55.5977 96.2414H54.0117V92.297C54.0117 90.9891 53.5492 90.3351 52.624 90.3351C52.141 90.3351 51.7422 90.5174 51.4277 90.882C51.1133 91.242 50.9561 91.6978 50.9561 92.2492V96.2414H49.3633V89.2414H50.9561V90.4035H50.9834C51.5075 89.5194 52.264 89.0773 53.2529 89.0773C54.014 89.0773 54.5951 89.3257 54.9961 89.8224C55.3971 90.3146 55.5977 91.0278 55.5977 91.9621V96.2414ZM63.9033 96.2414H62.3174V95.0519H62.29C61.7796 95.9543 60.9935 96.4054 59.9316 96.4054C59.0703 96.4054 58.3799 96.0933 57.8604 95.4689C57.3454 94.84 57.0879 93.9855 57.0879 92.9054C57.0879 91.7479 57.3727 90.8205 57.9424 90.1232C58.5166 89.4259 59.2799 89.0773 60.2324 89.0773C61.1758 89.0773 61.8617 89.4556 62.29 90.2121H62.3174V85.8781H63.9033V96.2414ZM62.3379 93.0422V92.1261C62.3379 91.6294 62.1761 91.2079 61.8525 90.8615C61.529 90.5151 61.1165 90.342 60.6152 90.342C60.0228 90.342 59.5557 90.563 59.2139 91.0051C58.8766 91.4471 58.708 92.0601 58.708 92.8439C58.708 93.5549 58.8698 94.1177 59.1934 94.5324C59.5215 94.9426 59.9613 95.1476 60.5127 95.1476C61.055 95.1476 61.4948 94.9494 61.832 94.5529C62.1693 94.1519 62.3379 93.6483 62.3379 93.0422Z" fill="#E8E8E8"/>
<g clip-path="url(#clip0_2_43)">
<path d="M27.5 35.1786C29.1667 28.5119 33.3333 25.1786 40 25.1786C50 25.1786 51.25 32.6786 56.25 33.9286C59.5833 34.7619 62.5 33.5119 65 30.1786C63.3333 36.8452 59.1667 40.1786 52.5 40.1786C42.5 40.1786 41.25 32.6786 36.25 31.4286C32.9167 30.5952 30 31.8452 27.5 35.1786ZM15 50.1786C16.6667 43.5119 20.8333 40.1786 27.5 40.1786C37.5 40.1786 38.75 47.6786 43.75 48.9286C47.0833 49.7619 50 48.5119 52.5 45.1786C50.8333 51.8452 46.6667 55.1786 40 55.1786C30 55.1786 28.75 47.6786 23.75 46.4286C20.4167 45.5952 17.5 46.8452 15 50.1786Z" fill="#44A8B3"/>
</g>
<defs>
<clipPath id="clip0_2_43">
<rect width="50" height="30.3571" fill="white" transform="translate(15 25)"/>
</clipPath>
</defs>
</svg>
