<svg width="80" height="105" viewBox="0 0 80 105" fill="none" xmlns="http://www.w3.org/2000/svg">
<path d="M0 5C0 2.23858 2.23858 0 5 0H75C77.7614 0 80 2.23858 80 5V80H0V5Z" fill="#1D1D1F"/>
<path d="M0 80H80V100C80 102.761 77.7614 105 75 105H5C2.23858 105 0 102.761 0 100V80Z" fill="#303133"/>
<path d="M29.2861 86.4386L25.7656 96.2414H23.9473L20.4883 86.4386H22.2656L24.6855 93.8761C24.763 94.1131 24.8223 94.3888 24.8633 94.7033H24.8906C24.9225 94.4435 24.9886 94.1633 25.0889 93.8625L27.5635 86.4386H29.2861ZM36.0469 96.2414H34.4609V95.134H34.4336C33.9733 95.9816 33.2578 96.4054 32.2871 96.4054C30.6328 96.4054 29.8057 95.412 29.8057 93.425V89.2414H31.3916V93.2609C31.3916 94.5187 31.877 95.1476 32.8477 95.1476C33.3171 95.1476 33.7021 94.9745 34.0029 94.6281C34.3083 94.2817 34.4609 93.8283 34.4609 93.2677V89.2414H36.0469V96.2414ZM44.0449 93.172H39.2734C39.2917 93.8192 39.4899 94.3182 39.8682 94.6691C40.251 95.02 40.7751 95.1955 41.4404 95.1955C42.1878 95.1955 42.8737 94.9722 43.498 94.5256V95.8039C42.86 96.2049 42.0169 96.4054 40.9688 96.4054C39.9388 96.4054 39.1299 96.0887 38.542 95.4552C37.9587 94.8172 37.667 93.9217 37.667 92.7687C37.667 91.6795 37.9883 90.7931 38.6309 90.1095C39.278 89.4214 40.0801 89.0773 41.0371 89.0773C41.9941 89.0773 42.7347 89.3849 43.2588 90.0002C43.7829 90.6154 44.0449 91.4699 44.0449 92.5636V93.172ZM42.5137 92.0509C42.5091 91.4813 42.3747 91.0392 42.1104 90.7248C41.846 90.4058 41.4814 90.2463 41.0166 90.2463C40.5609 90.2463 40.1735 90.4126 39.8545 90.7453C39.54 91.078 39.3464 91.5132 39.2734 92.0509H42.5137ZM46.2119 96.3918C45.9385 96.3918 45.7061 96.3029 45.5146 96.1252C45.3232 95.9429 45.2275 95.7264 45.2275 95.4758C45.2275 95.2205 45.3232 95.0018 45.5146 94.8195C45.7061 94.6372 45.9385 94.5461 46.2119 94.5461C46.4899 94.5461 46.7246 94.6372 46.916 94.8195C47.112 95.0018 47.21 95.2205 47.21 95.4758C47.21 95.7264 47.112 95.9429 46.916 96.1252C46.7246 96.3029 46.4899 96.3918 46.2119 96.3918ZM50.5186 95.9474C50.5186 97.0959 50.277 97.98 49.7939 98.5998C49.3109 99.2241 48.6204 99.5363 47.7227 99.5363C47.39 99.5363 47.0664 99.4634 46.752 99.3176V97.9572C47.0482 98.1623 47.3285 98.2648 47.5928 98.2648C48.486 98.2648 48.9326 97.4764 48.9326 95.8996V89.2414H50.5186V95.9474ZM49.7393 87.7717C49.4795 87.7717 49.2562 87.6873 49.0693 87.5187C48.887 87.3501 48.7959 87.1359 48.7959 86.8761C48.7959 86.6164 48.887 86.3999 49.0693 86.2267C49.2562 86.0536 49.4795 85.967 49.7393 85.967C50.0036 85.967 50.2292 86.0536 50.416 86.2267C50.6029 86.3999 50.6963 86.6164 50.6963 86.8761C50.6963 87.1222 50.6029 87.3342 50.416 87.5119C50.2292 87.6851 50.0036 87.7717 49.7393 87.7717ZM52.1592 96.0226V94.5529C52.7516 95.0041 53.4056 95.2297 54.1211 95.2297C55.0781 95.2297 55.5566 94.9471 55.5566 94.382C55.5566 94.2225 55.5156 94.0881 55.4336 93.9787C55.3516 93.8648 55.2399 93.7645 55.0986 93.6779C54.9619 93.5913 54.7979 93.5138 54.6064 93.4455C54.4196 93.3771 54.21 93.2996 53.9775 93.2131C53.6904 93.0991 53.4307 92.9784 53.1982 92.8508C52.9704 92.7231 52.779 92.5796 52.624 92.4201C52.4736 92.256 52.3597 92.0715 52.2822 91.8664C52.2048 91.6613 52.166 91.422 52.166 91.1486C52.166 90.8114 52.2458 90.5151 52.4053 90.2599C52.5648 90.0002 52.779 89.7837 53.0479 89.6105C53.3167 89.4328 53.6221 89.3006 53.9639 89.214C54.3057 89.1229 54.6589 89.0773 55.0234 89.0773C55.6706 89.0773 56.2493 89.1753 56.7598 89.3713V90.759C56.2676 90.4217 55.7025 90.2531 55.0645 90.2531C54.8639 90.2531 54.6816 90.2736 54.5176 90.3146C54.3581 90.3556 54.2214 90.4126 54.1074 90.4855C53.9935 90.5584 53.9046 90.6473 53.8408 90.7521C53.777 90.8524 53.7451 90.964 53.7451 91.0871C53.7451 91.2375 53.777 91.3651 53.8408 91.4699C53.9046 91.5747 53.998 91.6681 54.1211 91.7502C54.2487 91.8276 54.3991 91.9006 54.5723 91.9689C54.75 92.0327 54.9528 92.1034 55.1807 92.1808C55.4814 92.3039 55.7503 92.4292 55.9873 92.5568C56.2288 92.6844 56.4339 92.8302 56.6025 92.9943C56.7712 93.1538 56.901 93.3407 56.9922 93.5549C57.0833 93.7645 57.1289 94.0151 57.1289 94.3068C57.1289 94.6623 57.0469 94.9722 56.8828 95.2365C56.7188 95.5008 56.5 95.7196 56.2266 95.8927C55.9531 96.0659 55.6364 96.1935 55.2764 96.2756C54.9209 96.3621 54.5449 96.4054 54.1484 96.4054C53.3828 96.4054 52.7197 96.2778 52.1592 96.0226Z" fill="#E8E8E8"/>
<path d="M55 18.6518H65L40 61.7768L15 18.6518H34.125L40 28.6518L45.75 18.6518H55Z" fill="#41B883"/>
<path d="M15 18.6518L40 61.7768L65 18.6518H55L40 44.5268L24.875 18.6518H15Z" fill="#41B883"/>
<path d="M24.875 18.6518L40 44.6518L55 18.6518H45.75L40 28.6518L34.125 18.6518H24.875Z" fill="#35495E"/>
</svg>
